<svg id="Apple" xmlns="http://www.w3.org/2000/svg" width="17.357" height="21.432" viewBox="0 0 17.357 21.432">
  <g id="Stroke-82" transform="translate(0 5.742)">
    <path id="Path_13785" data-name="Path 13785" d="M7.8,23.19c-1.736,0-2.938-1.536-3.806-2.871-2.2-3.405-2.671-7.678-1.068-10.148A5.512,5.512,0,0,1,7.4,7.5a6.739,6.739,0,0,1,2.2.467,3.588,3.588,0,0,0,1.4.334,2.98,2.98,0,0,0,1.2-.334A6.852,6.852,0,0,1,14.544,7.5a5.4,5.4,0,0,1,4.073,2.136.519.519,0,0,1,.134.534.773.773,0,0,1-.334.467,3.247,3.247,0,0,0-1.736,3.2,3.325,3.325,0,0,0,2.2,3,.6.6,0,0,1,.4.4.737.737,0,0,1,0,.534,13.046,13.046,0,0,1-1.269,2.337c-1,1.469-2.2,3-3.806,3a3.305,3.305,0,0,1-1.6-.4,3.1,3.1,0,0,0-1.6-.4,3.527,3.527,0,0,0-1.6.4,2.689,2.689,0,0,1-1.6.467Z" transform="translate(-1.976 -7.5)"/>
  </g>
  <g id="Stroke-83" transform="translate(7.643 0)">
    <path id="Path_13786" data-name="Path 13786" d="M14.276,4.775h-.134a.719.719,0,0,1-.668-.534A4.556,4.556,0,0,1,14.543.7a5.207,5.207,0,0,1,3.338-1.8.716.716,0,0,1,.734.6,4.485,4.485,0,0,1-1.068,3.539A4.149,4.149,0,0,1,14.276,4.775Z" transform="translate(-13.424 1.1)"/>
  </g>
</svg>
