<svg xmlns="http://www.w3.org/2000/svg" width="19.371" height="19.371" viewBox="0 0 19.371 19.371">
  <path id="dashboard-4-svgrepo-com" d="M6.625,12.061a.937.937,0,0,0-1.875,0Zm6.561,11.56a.937.937,0,1,0,0-1.875ZM4.75,12.061a.937.937,0,1,0,1.875,0Zm8.436-5.936a.937.937,0,0,0,0-1.875Zm-7.5,5a.937.937,0,1,0,0,1.875ZM13.186,13a.937.937,0,1,0,0-1.875Zm-.937-.937a.937.937,0,1,0,1.875,0Zm1.875-6.873a.937.937,0,1,0-1.875,0Zm0,6.873a.937.937,0,0,0-1.875,0Zm-1.875,4.374a.937.937,0,1,0,1.875,0Zm.937,5.311a.937.937,0,1,0,0,1.875Zm10.935-5.311a.937.937,0,0,0-1.875,0ZM12.248,22.683a.937.937,0,1,0,1.875,0Zm1.875-6.249a.937.937,0,0,0-1.875,0ZM13.186,4.25a.937.937,0,0,0,0,1.875Zm9.06,12.185a.937.937,0,1,0,1.875,0Zm.937.937a.937.937,0,0,0,0-1.875Zm-10-1.875a.937.937,0,1,0,0,1.875ZM4.75,12.061v5.624H6.625V12.061Zm0,5.624a5.936,5.936,0,0,0,5.936,5.936V21.746a4.062,4.062,0,0,1-4.062-4.062Zm5.936,5.936h2.5V21.746h-2.5ZM6.625,12.061V10.186H4.75v1.875Zm0-1.875a4.062,4.062,0,0,1,4.062-4.062V4.25A5.936,5.936,0,0,0,4.75,10.186Zm4.062-4.062h2.5V4.25h-2.5ZM5.687,13h7.5V11.123h-7.5Zm8.436-.937V5.187H12.248v6.873Zm-1.875,0v4.374h1.875V12.061Zm.937,11.56h5V21.746h-5Zm5,0a5.936,5.936,0,0,0,5.936-5.936H22.246a4.062,4.062,0,0,1-4.062,4.062Zm5.936-5.936v-1.25H22.246v1.25Zm-10,5V16.435H12.248v6.249ZM13.186,6.125h5V4.25h-5Zm5,0a4.062,4.062,0,0,1,4.062,4.062h1.875A5.936,5.936,0,0,0,18.184,4.25Zm4.062,4.062v6.249h1.875V10.186Zm.937,5.311h-10v1.875h10Z" transform="translate(-4.75 -4.25)" fill="#5e99a0"/>
</svg>
