<svg xmlns="http://www.w3.org/2000/svg" width="18.939" height="20.51" viewBox="0 0 18.939 20.51">
  <g id="delete-svgrepo-com" transform="translate(-7.434 -6.649)">
    <path id="Path_920" data-name="Path 920" d="M25.913,12.788a.789.789,0,0,0-.518-.252l-.059,0a.789.789,0,0,0-.79.727H12.709L12.7,13.2a.789.789,0,0,0-1.566.183l1.126,14.262.008.079A1.578,1.578,0,0,0,13.834,29.1H23.42l.079,0a1.578,1.578,0,0,0,1.493-1.451l1.126-14.261,0-.059A.789.789,0,0,0,25.913,12.788Z" transform="translate(-1.724 -1.94)" fill="#e96363"/>
    <path id="Path_921" data-name="Path 921" d="M26.943,11.6A.789.789,0,0,1,27,13.176l-.059,0H9.588A.789.789,0,0,1,9.529,11.6l.059,0Z" transform="translate(-1.362 -1.796)" fill="#e96363"/>
    <path id="Path_922" data-name="Path 922" d="M21.177,7.867a2.366,2.366,0,0,1,2.365,2.278l0,.089v1.578a.789.789,0,0,1-1.576.059l0-.059V10.233a.789.789,0,0,0-.73-.787l-.059,0H17.233a.789.789,0,0,0-.787.73l0,.059v1.578a.789.789,0,0,1-1.576.059l0-.059V10.233a2.367,2.367,0,0,1,2.278-2.365l.089,0Z" transform="translate(-2.301 -1.218)" fill="#e96363"/>
    <path id="Path_923" data-name="Path 923" d="M22.433,26.533a.789.789,0,0,1,.789.789h0a.789.789,0,0,1-.789.789H16.122a.789.789,0,0,1-.789-.789h0a.789.789,0,0,1,.789-.789Z" transform="translate(-2.374 -4.108)" fill="#fff"/>
  </g>
</svg>
