<svg xmlns="http://www.w3.org/2000/svg" width="17.158" height="17.591" viewBox="0 0 17.158 17.591">
  <g id="delete-svgrepo-com" transform="translate(-8.452 -8.109)">
    <g id="edit-2-svgrepo-com" transform="translate(8.452 8.109)">
      <path id="Path_924" data-name="Path 924" d="M18.748,21.82H2.91a.66.66,0,1,1,0-1.32H18.748a.66.66,0,1,1,0,1.32Z" transform="translate(-2.25 -4.229)" fill="#7cc17e"/>
      <path id="Path_925" data-name="Path 925" d="M18.161,3.3c-1.707-1.707-3.379-1.751-5.13,0L11.967,4.369a.367.367,0,0,0-.088.352,7.152,7.152,0,0,0,4.866,4.866.442.442,0,0,0,.106.018.352.352,0,0,0,.255-.106l1.056-1.065a3.637,3.637,0,0,0,1.293-2.543A3.623,3.623,0,0,0,18.161,3.3Z" transform="translate(-3.405 -2.008)" fill="#7cc17e"/>
      <path id="Path_926" data-name="Path 926" d="M14.155,10.921c-.255-.123-.5-.246-.739-.387-.194-.114-.378-.238-.563-.37a5.313,5.313,0,0,1-.493-.378,1.074,1.074,0,0,1-.15-.132,7.443,7.443,0,0,1-.906-.915,1.072,1.072,0,0,1-.132-.158A5.118,5.118,0,0,1,10.8,8.1a4.831,4.831,0,0,1-.343-.519c-.141-.238-.264-.475-.387-.722q-.028-.06-.054-.119a.458.458,0,0,0-.739-.152L4.239,11.625a1.059,1.059,0,0,0-.246.484l-.475,3.37a1.8,1.8,0,0,0,.449,1.54,1.751,1.751,0,0,0,1.232.475,1.924,1.924,0,0,0,.317-.026l3.379-.475a.979.979,0,0,0,.484-.246l5.034-5.034a.463.463,0,0,0-.155-.747Z" transform="translate(-2.399 -2.542)" fill="#7cc17e"/>
    </g>
  </g>
</svg>
