<svg xmlns="http://www.w3.org/2000/svg" width="22.338" height="22.143" viewBox="0 0 22.338 22.143">
  <g id="Eye---Slash" opacity="0.6">
    <rect id="Rectangle_3" data-name="Rectangle 3" width="22.337" height="22.142" fill="none"/>
    <g id="Group_2" data-name="Group 2" transform="translate(2.792 3.691)">
      <g id="Group_1" data-name="Group 1">
        <path id="Path_1" data-name="Path 1" d="M18.585,5.22,5.662,18.077a.721.721,0,0,1-1.015,0,.711.711,0,0,1,0-1.01l.692-.689a8.708,8.708,0,0,1-1.466-1.841,6.139,6.139,0,0,1,0-6.311A8.8,8.8,0,0,1,16.291,5.483l1.279-1.273a.721.721,0,0,1,1.015,0,.711.711,0,0,1,0,1.01Zm-6.2,4.146a2.33,2.33,0,0,0-2.237.122A2.287,2.287,0,0,0,9.3,12.437l3.087-3.072Z" transform="translate(-3 -4)" fill="#5e99a0" fill-rule="evenodd"/>
        <path id="Path_2" data-name="Path 2" d="M18.274,8.3a.72.72,0,0,1,.984.249,6.139,6.139,0,0,1,0,6.31A8.762,8.762,0,0,1,8.9,18.621a.713.713,0,0,1-.413-.892.723.723,0,0,1,.874-.461,7.324,7.324,0,0,0,8.659-3.137,4.717,4.717,0,0,0,0-4.852.712.712,0,0,1,.25-.978Z" transform="translate(-3.378 -4.326)" fill="#5e99a0"/>
        <path id="Path_3" data-name="Path 3" d="M14.973,11.28a.717.717,0,0,1,.718.715,3.734,3.734,0,0,1-3.744,3.725.715.715,0,1,1,0-1.429,2.3,2.3,0,0,0,2.309-2.3.717.717,0,0,1,.719-.714Z" transform="translate(-3.57 -4.564)" fill="#5e99a0"/>
      </g>
    </g>
  </g>
</svg>
