<svg id="facebook_5968764" xmlns="http://www.w3.org/2000/svg" width="23.076" height="23.076" viewBox="0 0 23.076 23.076">
  <path id="Path_13777" data-name="Path 13777" d="M23.076,11.538a11.541,11.541,0,0,1-9.735,11.4V14.873h2.688l.512-3.335h-3.2V9.374a1.668,1.668,0,0,1,1.88-1.8h1.455V4.732a17.747,17.747,0,0,0-2.583-.225C11.458,4.507,9.735,6.1,9.735,9v2.542H6.806v3.335h2.93v8.063a11.539,11.539,0,1,1,13.341-11.4Z" transform="translate(0)" fill="#1877f2"/>
  <path id="Path_13778" data-name="Path 13778" d="M160.224,110.366l.512-3.335h-3.2v-2.164a1.668,1.668,0,0,1,1.88-1.8h1.455v-2.839a17.742,17.742,0,0,0-2.583-.225c-2.636,0-4.358,1.6-4.358,4.489v2.542H151v3.335h2.93v8.063a11.661,11.661,0,0,0,3.606,0v-8.063Z" transform="translate(-144.194 -95.493)" fill="#fff"/>
</svg>
