<svg id="google_13170545" xmlns="http://www.w3.org/2000/svg" width="23.096" height="23.592" viewBox="0 0 23.096 23.592">
  <g id="Group_52" data-name="Group 52" transform="translate(0 0)">
    <path id="Path_13780" data-name="Path 13780" d="M17.9,10.308a12.153,12.153,0,0,0-6.672,5.828,9.82,9.82,0,0,0-1,2.991,11.8,11.8,0,0,0,1,7.592,11.313,11.313,0,0,0,3.221,3.911,10.8,10.8,0,0,0,4.295,2.147,12.164,12.164,0,0,0,5.982.077,10.48,10.48,0,0,0,7.822-7.439A13.086,13.086,0,0,0,32.85,19.2H21.807v4.6h6.365a5.353,5.353,0,0,1-2.377,3.6,6.368,6.368,0,0,1-2.607,1,8.807,8.807,0,0,1-2.837,0,6.637,6.637,0,0,1-2.607-1.15,7.042,7.042,0,0,1-2.684-3.6,6.773,6.773,0,0,1,0-4.6,7.888,7.888,0,0,1,1.687-2.761,6.181,6.181,0,0,1,3.528-1.917,6.6,6.6,0,0,1,3.451.153,7.538,7.538,0,0,1,2.531,1.457L28.4,13.835l1.15-1.15A12.025,12.025,0,0,0,25.8,10.308,12.644,12.644,0,0,0,17.9,10.308Z" transform="translate(-9.989 -9.675)" fill="#fff"/>
    <g id="Group_48" data-name="Group 48" transform="translate(1.236 0.009)">
      <path id="Path_13781" data-name="Path 13781" d="M18.272,10.31a12.124,12.124,0,0,1,7.9.077,10.786,10.786,0,0,1,3.758,2.377l-1.15,1.15-2.147,2.147A5.631,5.631,0,0,0,24.1,14.6a7.47,7.47,0,0,0-3.451-.153,7.967,7.967,0,0,0-3.528,1.917,6.9,6.9,0,0,0-1.687,2.761c-1.3-1-2.531-1.994-3.834-2.991A12.153,12.153,0,0,1,18.272,10.31Z" transform="translate(-11.6 -9.687)" fill="#ea4335"/>
    </g>
    <g id="Group_49" data-name="Group 49" transform="translate(0 6.461)">
      <path id="Path_13782" data-name="Path 13782" d="M10.227,21.091a15.215,15.215,0,0,1,1-2.991c1.3,1,2.531,1.994,3.834,2.991a6.773,6.773,0,0,0,0,4.6c-1.3,1-2.531,1.994-3.834,2.991A11.863,11.863,0,0,1,10.227,21.091Z" transform="translate(-9.989 -18.1)" fill="#fbbc05"/>
    </g>
    <g id="Group_50" data-name="Group 50" transform="translate(11.742 9.528)">
      <path id="Path_13783" data-name="Path 13783" d="M25.3,22.1H36.343a13.086,13.086,0,0,1-.307,6.212,10.931,10.931,0,0,1-2.991,4.908c-1.227-1-2.454-1.917-3.758-2.914a5.826,5.826,0,0,0,2.377-3.6H25.3Z" transform="translate(-25.3 -22.1)" fill="#4285f4"/>
    </g>
    <g id="Group_51" data-name="Group 51" transform="translate(1.236 14.053)">
      <path id="Path_13784" data-name="Path 13784" d="M11.6,30.991c1.3-1,2.531-1.994,3.834-2.991a7.042,7.042,0,0,0,2.684,3.6,7.967,7.967,0,0,0,2.607,1.15,8.8,8.8,0,0,0,2.837,0,7.674,7.674,0,0,0,2.607-1c1.227,1,2.454,1.917,3.758,2.914A11.273,11.273,0,0,1,25.1,37.2a12.141,12.141,0,0,1-5.982-.077,11.914,11.914,0,0,1-4.295-2.147A14.462,14.462,0,0,1,11.6,30.991Z" transform="translate(-11.6 -28)" fill="#34a853"/>
    </g>
  </g>
</svg>
