<svg xmlns="http://www.w3.org/2000/svg" width="113.057" height="92.222" viewBox="0 0 113.057 92.222">
  <g id="Group_52776" data-name="Group 52776" transform="translate(-109 -282.505)">
    <g id="Group_51720" data-name="Group 51720" transform="translate(126.956 282.505)">
      <g id="Group_51719" data-name="Group 51719" transform="translate(0 0)">
        <path id="Path_15413" data-name="Path 15413" d="M106.923,91.275v9.967L145.742,66.59c20.929,18.683,3.645,3.253,38.815,34.652V91.275c-35.17-31.4-17.886-15.969-38.815-34.652Z" transform="translate(-106.923 -26.813)" fill="#050505"/>
        <path id="Path_15414" data-name="Path 15414" d="M175.479,54.335V45.549l-7.255-6.479v8.786c-13.158-11.747-6.063-5.413-22.482-20.069L106.923,62.438V82.2l38.819-34.652L184.557,82.2V62.438Z" transform="translate(-106.923 -27.787)" fill="#5e99a0"/>
      </g>
    </g>
    <path id="Path_15271" data-name="Path 15271" d="M202.337,94.031s-.443-.133-1.273-.352-2.057-.506-3.612-.84a112.491,112.491,0,0,0-12.94-1.91c-2.679-.246-5.583-.418-8.648-.485s-6.292-.023-9.619.14c-1.664.085-3.353.212-5.06.349l-2.57.255-2.591.305c-.867.094-1.732.243-2.6.361s-1.739.271-2.611.411c-1.748.263-3.488.621-5.229.96l-2.6.555c-.87.174-1.726.407-2.587.607l-1.29.31-1.358.323-1.32.306c-.446.1-.921.193-1.38.289l-1.381.283-1.367.243c-.454.08-.907.156-1.36.225l-1.361.187c-1.808.249-3.609.43-5.387.531a59.569,59.569,0,0,1-10.285-.259,47.332,47.332,0,0,1-9.032-1.946c-1.356-.46-2.641-.938-3.829-1.473s-2.289-1.083-3.286-1.667a32.344,32.344,0,0,1-4.873-3.394,29.27,29.27,0,0,1-2.727-2.62c-.3-.314-.508-.573-.653-.744l-.217-.259s.387.256,1.117.709,1.814,1.086,3.22,1.8a39.808,39.808,0,0,0,5.2,2.169,44.248,44.248,0,0,0,6.982,1.74c1.3.2,2.647.4,4.059.5.7.067,1.421.1,2.145.145.731.023,1.469.052,2.218.05a70.046,70.046,0,0,0,9.422-.607c1.628-.235,3.281-.465,4.948-.794q.623-.121,1.252-.241l1.256-.273,1.261-.266,1.242-.3c.42-.1.825-.192,1.255-.3l1.309-.349,1.277-.335,1.354-.342c1.8-.477,3.634-.88,5.466-1.274,1.843-.341,3.685-.7,5.535-.956l1.385-.205c.461-.064.926-.107,1.386-.162.926-.1,1.844-.223,2.765-.294s1.835-.161,2.747-.221l2.729-.126c1.81-.056,3.6-.089,5.353-.036a91.058,91.058,0,0,1,10.091.766,84.029,84.029,0,0,1,8.892,1.666,74.972,74.972,0,0,1,7.3,2.184c2.135.764,3.954,1.533,5.422,2.226s2.582,1.314,3.335,1.74S202.337,94.031,202.337,94.031Z" transform="translate(19.72 277.53)" fill="#5e99a0"/>
    <text id="CS" transform="translate(153.198 352.569)" fill="#050505" font-size="19" font-family="SegoeUI-BoldItalic, Segoe UI" font-weight="700" font-style="italic"><tspan x="0" y="0">CS</tspan></text>
  </g>
</svg>
