<svg xmlns="http://www.w3.org/2000/svg" xmlns:xlink="http://www.w3.org/1999/xlink" width="272.5" height="200" viewBox="0 0 272.5 200">
  <defs>
    <linearGradient id="linear-gradient" x1="0.685" y1="1.178" x2="1.265" y2="0.198" gradientUnits="objectBoundingBox">
      <stop offset="0" stop-color="#919eab"/>
      <stop offset="1" stop-color="#919eab" stop-opacity="0"/>
    </linearGradient>
  </defs>
  <g id="Group_35287" data-name="Group 35287" transform="translate(-579.899 -193)">
    <g id="illustrations_background" data-name="illustrations/background" transform="translate(579.899 193)">
      <path id="BG" d="M36.505,37.717A86.078,86.078,0,0,1,86.279,20.889,61.582,61.582,0,0,1,105.945,5.923,59.9,59.9,0,0,1,131.991,0a61.009,61.009,0,0,1,52.2,29.751A75.355,75.355,0,0,1,196.712,28.7c41.854,0,75.788,34.652,75.788,77.391a78.387,78.387,0,0,1-8.006,34.658A77.177,77.177,0,0,1,239,170.315a74.306,74.306,0,0,1-42.29,13.164h-.081a19.767,19.767,0,0,0-13,4.692,43.994,43.994,0,0,1-48.111,6.313,19.553,19.553,0,0,0-15.867-.615,86.494,86.494,0,0,1-97.208-23.554,90.855,90.855,0,0,1,14.059-132.6Z" fill-rule="evenodd" opacity="0.16" fill="url(#linear-gradient)"/>
      <path id="Vector" d="M49.5,10.91a5.635,5.635,0,0,1-3.95-1.6,5.375,5.375,0,0,1,0-7.718,5.686,5.686,0,0,1,7.9,0,5.375,5.375,0,0,1,0,7.718,5.635,5.635,0,0,1-3.95,1.6Zm0-7.148a1.75,1.75,0,0,0-1.226.5,1.669,1.669,0,0,0,0,2.4,1.765,1.765,0,0,0,2.452,0,1.669,1.669,0,0,0,0-2.4,1.75,1.75,0,0,0-1.225-.5Z" transform="translate(104.878 31.111)" fill="#919eab" opacity="0.2"/>
      <path id="Vector-2" data-name="Vector" d="M5.584,138.333a5.637,5.637,0,0,1-3.95-1.6,5.375,5.375,0,0,1,0-7.718,5.687,5.687,0,0,1,7.9,0,5.375,5.375,0,0,1,0,7.718,5.636,5.636,0,0,1-3.95,1.6Zm0-7.148a1.75,1.75,0,0,0-1.226.5,1.669,1.669,0,0,0,0,2.4,1.765,1.765,0,0,0,2.452,0,1.669,1.669,0,0,0,0-2.4A1.75,1.75,0,0,0,5.584,131.185Z" transform="translate(104.878 31.111)" fill="#919eab" opacity="0.2"/>
      <path id="Vector-3" data-name="Vector" d="M145.11,14.509a1.943,1.943,0,0,1-1.362-.551l-2.3-2.245-2.3,2.245a1.958,1.958,0,0,1-2.724,0,1.851,1.851,0,0,1,0-2.661l3.66-3.576a1.958,1.958,0,0,1,2.724,0l3.66,3.576a1.851,1.851,0,0,1,0,2.661,1.945,1.945,0,0,1-1.362.551Z" transform="translate(63.016 129.23)" fill="#919eab" opacity="0.2"/>
      <path id="Vector-4" data-name="Vector" d="M9.246,7.339a1.943,1.943,0,0,1-1.362-.551l-2.3-2.245-2.3,2.245a1.958,1.958,0,0,1-2.724,0,1.851,1.851,0,0,1,0-2.661L4.224.551a1.958,1.958,0,0,1,2.724,0l3.66,3.576a1.851,1.851,0,0,1,0,2.661A1.945,1.945,0,0,1,9.246,7.339Z" transform="translate(63.016 129.23)" fill="#919eab" opacity="0.2"/>
    </g>
    <path id="Subtract" d="M0,3.2A3.236,3.236,0,0,1,3.275,0h13.1a3.236,3.236,0,0,1,3.275,3.2,3.236,3.236,0,0,1-3.275,3.2H3.275A3.236,3.236,0,0,1,0,3.2Zm85.141,0V41.591a3.236,3.236,0,0,1-3.275,3.2H49.12a3.236,3.236,0,0,1-3.275-3.2V3.2A3.236,3.236,0,0,1,49.12,0H81.866a3.236,3.236,0,0,1,3.275,3.2ZM0,16a3.236,3.236,0,0,1,3.275-3.2H36.021a3.2,3.2,0,1,1,0,6.4H3.275A3.236,3.236,0,0,1,0,16Zm36.021,9.6a3.2,3.2,0,1,1,0,6.4H3.275a3.2,3.2,0,1,1,0-6.4ZM0,41.591a3.236,3.236,0,0,1,3.275-3.2H36.021a3.2,3.2,0,1,1,0,6.4H3.275A3.236,3.236,0,0,1,0,41.591Z" transform="translate(674.281 282.979)" fill="#919eab" fill-rule="evenodd" opacity="0.16"/>
    <path id="Subtract-2" data-name="Subtract" d="M112.648,0V56.305a7.766,7.766,0,0,1-7.849,7.68H7.848A7.766,7.766,0,0,1,0,56.305V0ZM33.4,12.157a3.236,3.236,0,0,0-3.275-3.2h-13.1a3.2,3.2,0,1,0,0,6.4h13.1A3.236,3.236,0,0,0,33.4,12.157Zm26.2,0V50.549a3.236,3.236,0,0,0,3.275,3.2H95.62a3.236,3.236,0,0,0,3.275-3.2V12.157a3.236,3.236,0,0,0-3.275-3.2H62.873a3.236,3.236,0,0,0-3.275,3.2Zm-42.571,9.6a3.2,3.2,0,1,0,0,6.4H49.775a3.2,3.2,0,1,0,0-6.4Zm0,19.2H49.775a3.2,3.2,0,1,0,0-6.4H17.028a3.2,3.2,0,1,0,0,6.4Zm0,6.4a3.2,3.2,0,1,0,0,6.4H49.775a3.2,3.2,0,1,0,0-6.4Z" transform="translate(660.527 274.02)" fill="rgba(145,158,171,0.48)" fill-rule="evenodd"/>
    <path id="Intersect" d="M112.648,25.594H0V7.68A7.766,7.766,0,0,1,7.848,0H104.8a7.766,7.766,0,0,1,7.849,7.68Zm-95.62-16A3.2,3.2,0,1,0,20.3,12.8,3.206,3.206,0,0,0,17.028,9.6Zm13.1,0A3.2,3.2,0,1,0,33.4,12.8,3.206,3.206,0,0,0,30.127,9.6Zm13.1,0A3.2,3.2,0,1,0,46.5,12.8,3.206,3.206,0,0,0,43.225,9.6Z" transform="translate(660.527 248.426)" fill="#919eab" fill-rule="evenodd" opacity="0.16"/>
    <path id="Intersect-2" data-name="Intersect" d="M6.549,3.2A3.206,3.206,0,0,1,3.275,6.4a3.2,3.2,0,1,1,0-6.4A3.206,3.206,0,0,1,6.549,3.2Zm13.1,0A3.276,3.276,0,1,1,16.373,0,3.206,3.206,0,0,1,19.648,3.2Zm13.1,0A3.276,3.276,0,1,1,29.472,0,3.206,3.206,0,0,1,32.747,3.2Z" transform="translate(674.281 258.023)" fill="#919eab" fill-rule="evenodd" opacity="0.8"/>
  </g>
</svg>
