<svg xmlns="http://www.w3.org/2000/svg" width="131.683" height="107.415" viewBox="0 0 131.683 107.415">
  <g id="Group_46194" data-name="Group 46194" transform="translate(-109 -282.505)">
    <g id="Group_51720" data-name="Group 51720" transform="translate(129.914 282.505)">
      <g id="Group_51719" data-name="Group 51719" transform="translate(0 0)">
        <path id="Path_15413" data-name="Path 15413" d="M106.923,96.983v11.609l45.214-40.36c24.377,21.761,4.246,3.789,45.209,40.36V96.983c-40.964-36.571-20.832-18.6-45.209-40.36Z" transform="translate(-106.923 -21.901)" fill="#050505"/>
        <path id="Path_15414" data-name="Path 15414" d="M186.773,58.708V48.475c-3.43-3.064-6.2-5.535-8.45-7.546V51.162c-15.326-13.682-7.062-6.3-26.186-23.375L106.923,68.146V91.159L152.137,50.8l45.209,40.36V68.146Z" transform="translate(-106.923 -27.787)" fill="#5e99a0"/>
      </g>
    </g>
    <path id="Path_15271" data-name="Path 15271" d="M220.963,95.564s-.516-.155-1.482-.41-2.4-.59-4.207-.978A131.022,131.022,0,0,0,200.2,91.952c-3.12-.286-6.5-.487-10.073-.565s-7.329-.027-11.2.163c-1.938.1-3.9.247-5.894.407q-1.489.146-2.993.3l-3.018.355c-1.01.109-2.017.283-3.034.421s-2.026.316-3.041.479c-2.036.307-4.063.723-6.091,1.119l-3.034.647c-1.013.2-2.01.474-3.013.707l-1.5.361-1.582.376-1.537.357c-.519.118-1.072.225-1.607.336l-1.608.329-1.592.283c-.529.093-1.057.182-1.585.262l-1.586.218c-2.106.29-4.2.5-6.274.618a69.383,69.383,0,0,1-11.979-.3,55.13,55.13,0,0,1-10.52-2.267c-1.58-.536-3.076-1.092-4.46-1.715s-2.666-1.261-3.828-1.941a37.675,37.675,0,0,1-5.676-3.954,34.091,34.091,0,0,1-3.176-3.051c-.345-.366-.592-.667-.761-.867l-.253-.3s.451.3,1.3.826,2.112,1.265,3.75,2.1a46.366,46.366,0,0,0,6.054,2.526,51.537,51.537,0,0,0,8.132,2.027c1.512.234,3.084.468,4.728.58.817.078,1.655.115,2.5.169.851.027,1.711.061,2.583.058A81.588,81.588,0,0,0,129.3,92.3c1.9-.273,3.822-.542,5.763-.925q.726-.141,1.459-.281l1.463-.319,1.469-.31,1.447-.347c.489-.118.961-.223,1.462-.353l1.525-.407,1.487-.39,1.577-.4c2.1-.555,4.233-1.025,6.367-1.484,2.147-.4,4.293-.811,6.446-1.114l1.613-.239c.537-.075,1.078-.125,1.614-.189,1.078-.113,2.148-.259,3.22-.342s2.137-.188,3.2-.258l3.179-.146c2.108-.065,4.188-.1,6.235-.042a106.059,106.059,0,0,1,11.753.893,97.875,97.875,0,0,1,10.357,1.94,87.324,87.324,0,0,1,8.508,2.544c2.487.89,4.605,1.785,6.316,2.593s3.007,1.53,3.885,2.027S220.963,95.564,220.963,95.564Z" transform="translate(19.72 290.668)" fill="#5e99a0"/>
    <text id="CS" transform="translate(160.48 364.652)" fill="#050505" font-size="23" font-family="SegoeUI-BoldItalic, Segoe UI" font-weight="700" font-style="italic"><tspan x="0" y="0">CS</tspan></text>
  </g>
</svg>
