<svg xmlns="http://www.w3.org/2000/svg" width="235.671" height="209.889" viewBox="0 0 235.671 209.889">
  <g id="Group_54093" data-name="Group 54093" transform="translate(-84.466 -743.222)">
    <path id="Path_19929" data-name="Path 19929" d="M171.373,78.375c-.152-24.18-11.253-59.111-41.251-72.492C115.9-.459,93.431-3.743,77.408,6.937,62.446,16.91,68.93,28.513,52.423,48.43,33.414,71.368,18.123,68.27,5.377,88.3c-8.419,13.232-4.705,29.247-3.64,33.84,7.81,33.676,48.8,45.253,53.4,46.476,36.5,9.708,66.535-9.065,72.712-12.925C170.81,128.845,171.387,80.588,171.373,78.375Z" transform="matrix(0.966, 0.259, -0.259, 0.966, 140.636, 743.222)" fill="#caddff"/>
    <path id="Path_15057" data-name="Path 15057" d="M3038.031,2145.828a5.851,5.851,0,0,0-.538-3.06h0c-.82-1.375-1.679-2.63-2.454-3.685a49.583,49.583,0,0,0-.956,11.527C3036.195,2149.062,3037.786,2147.406,3038.031,2145.828Z" transform="translate(-2772.231 -1282.382)" fill="none"/>
    <path id="Path_15058" data-name="Path 15058" d="M9.074,10.987H0a10.012,10.012,0,0,0,9.725,8.968A10.1,10.1,0,0,0,19.541,9.591,10.381,10.381,0,0,0,13.447,0V6.372A4.5,4.5,0,0,1,9.074,10.987Z" transform="translate(154.964 797.36) rotate(-89)" fill="#5e99a0"/>
    <path id="Path_15059" data-name="Path 15059" d="M3290.527,1319.149c-.222-3.872,3.4-12.168,4.381-14.342-3.5-.867-9.4-2.7-10.412-3.014-2.932,4.278-4.616,8.4-4.552,16.576,1.952,1.9,9.315,3.608,12.542,4.283A4.609,4.609,0,0,1,3290.527,1319.149Z" transform="translate(-3002.458 -498.474)" fill="#fff"/>
    <path id="Path_15060" data-name="Path 15060" d="M3273.253,1314.059a.211.211,0,0,0,.061.146c2.476,2.563,13.877,4.683,14.361,4.772a.212.212,0,0,0,.038,0,.2.2,0,0,0,.047-.007,4.637,4.637,0,0,1-1.538-.722c-3.226-.675-10.589-2.384-12.542-4.284-.063-8.173,1.62-12.3,4.552-16.575l-.151-.047a.215.215,0,0,1-.146-.164c-.006-.03-.009-.059-.016-.089C3274.981,1301.368,3273.177,1305.716,3273.253,1314.059Z" transform="translate(-2996.192 -494.074)" fill="#1a1a1a"/>
    <path id="Path_15061" data-name="Path 15061" d="M3529.832,1339.568a.21.21,0,0,1-.075.174.215.215,0,0,1-.042.025l.083.18.085-.877a.215.215,0,0,0-.028-.122A3.343,3.343,0,0,0,3529.832,1339.568Z" transform="translate(-3236.307 -533.259)" fill="#1a1a1a"/>
    <path id="Path_15062" data-name="Path 15062" d="M3435.313,2691.726q-1.893,2.406-3.831,4.482A53.659,53.659,0,0,1,3427,2700.5q.606,1.2,1.094,2.376a23.9,23.9,0,0,1,6.248,2.045,37.008,37.008,0,0,1,5.875,3.489.182.182,0,0,1,.034.032,18.47,18.47,0,0,0,6.57-14.142c0-.5-.021-.988-.057-1.474l.065-.02a.185.185,0,0,1-.058-.03C3443.284,2690.124,3436.545,2691.454,3435.313,2691.726Z" transform="translate(-3140.143 -1799.256)" fill="#12689b" opacity="0.35"/>
    <path id="Path_15063" data-name="Path 15063" d="M3221.247,2527a31.664,31.664,0,0,0-2.089-7.02,37.142,37.142,0,0,0-4.13-7.353,18.588,18.588,0,0,0-3.559,3.725c1,.914,2.036,1.892,3.068,2.926A69.02,69.02,0,0,1,3221.247,2527Z" transform="translate(-2938.35 -1632.114)" fill="#12689b" opacity="0.35"/>
    <path id="Path_15064" data-name="Path 15064" d="M3745.058,2160.016a9.107,9.107,0,0,0-6.518-8.729s0,0,0,.007a140.232,140.232,0,0,1-7.363,17.233,16.806,16.806,0,0,1,9.048-.645.212.212,0,0,1,.132.1A9.1,9.1,0,0,0,3745.058,2160.016Z" transform="translate(-3424.921 -1293.809)" fill="#12689b" opacity="0.35"/>
    <path id="Path_15065" data-name="Path 15065" d="M3470.815,2304.05c.057.083,5.628,8.178,5.4,15.3a99.381,99.381,0,0,0,7.939-12.053c.89-1.577,1.725-3.138,2.5-4.659-.436-6.283-3.75-8.273-3.783-8.294a.213.213,0,0,1-.105-.167,13.784,13.784,0,0,0-12.071,9.791A.207.207,0,0,1,3470.815,2304.05Z" transform="translate(-3181.054 -1427.591)" fill="#12689b" opacity="0.35"/>
    <path id="Path_15066" data-name="Path 15066" d="M3667.268,2162.62a140.231,140.231,0,0,0,7.235-16.963,9.11,9.11,0,0,0-11.286,8.842c0,.05,0,.1,0,.149a.217.217,0,0,1,.112.028C3663.471,2154.755,3666.633,2156.639,3667.268,2162.62Z" transform="translate(-3361.296 -1288.292)" fill="#12689b" opacity="0.35"/>
    <path id="Path_15067" data-name="Path 15067" d="M3279.029,2469.2q1.007,1.415,1.861,2.811.732,1.2,1.347,2.384a61.1,61.1,0,0,0,8.06-8.5.215.215,0,0,1,0-.044c.543-7.1-5.24-15.506-5.3-15.591a.211.211,0,0,1-.036-.133c-.4-.026-.8-.042-1.212-.042a18.44,18.44,0,0,0-11.144,3.727,37.673,37.673,0,0,1,4.18,7.438A31.472,31.472,0,0,1,3279.029,2469.2Z" transform="translate(-2995.586 -1573.556)" fill="#12689b" opacity="0.35"/>
    <path id="Path_15068" data-name="Path 15068" d="M3583.328,2413.5a16.858,16.858,0,0,0-9.216.782c-.776,1.517-1.608,3.073-2.495,4.644a100.2,100.2,0,0,1-7.9,12.036c2.042-.409,7.971-1.305,11.311,1.231a.214.214,0,0,1,.042.3,13.775,13.775,0,0,0,8.4-19A.207.207,0,0,1,3583.328,2413.5Z" transform="translate(-3268.139 -1539.016)" fill="#12689b" opacity="0.35"/>
    <path id="Path_15069" data-name="Path 15069" d="M3441.125,2889.9a.215.215,0,0,1-.077.175q-1.036.866-2.2,1.663c.181,0,.362.009.545.009a18.445,18.445,0,0,0,11.615-4.1c-.534-.4-6.024-4.375-11.638-5.378A24.41,24.41,0,0,1,3441.125,2889.9Z" transform="translate(-3151.231 -1978.196)" fill="#12689b" opacity="0.35"/>
    <path id="Path_15070" data-name="Path 15070" d="M3423.724,2706.567c.071.135.14.271.209.406a53.663,53.663,0,0,0,4.478-4.29q1.937-2.071,3.831-4.481c-.122.027-.19.043-.2.045a.212.212,0,0,1-.262-.179A61.153,61.153,0,0,1,3423.724,2706.567Z" transform="translate(-3137.072 -1805.732)"/>
    <path id="Path_15071" data-name="Path 15071" d="M3726.805,2164.6l.237-.08a140.7,140.7,0,0,0,7.365-17.232.026.026,0,0,1,0-.008.212.212,0,0,0-.137-.261.215.215,0,0,0-.271.135l0,.014a140.4,140.4,0,0,1-7.235,16.963C3726.776,2164.285,3726.793,2164.44,3726.805,2164.6Z" transform="translate(-3420.789 -1289.803)"/>
    <path id="Path_15072" data-name="Path 15072" d="M3557.083,2443.581c0,.093-.006.185-.01.277.111-.025.256-.055.423-.089a100.3,100.3,0,0,0,7.9-12.037c.887-1.571,1.719-3.127,2.5-4.644l-.076.026a.2.2,0,0,1-.073.014.211.211,0,0,1-.117-.035.213.213,0,0,1-.1-.165c0-.02,0-.039,0-.059-.778,1.521-1.613,3.083-2.5,4.66A99.221,99.221,0,0,1,3557.083,2443.581Z" transform="translate(-3261.92 -1551.822)"/>
    <path id="Path_15073" data-name="Path 15073" d="M3483.917,2464.4c-3.34-2.535-9.268-1.639-11.312-1.23-.167.034-.312.065-.423.09,0-.093.008-.185.011-.278.224-7.122-5.347-15.218-5.4-15.3a.213.213,0,0,0-.114-.082.208.208,0,0,0-.182.028.211.211,0,0,0-.091.163.208.208,0,0,0,.037.133c.059.084,5.842,8.489,5.3,15.591a.3.3,0,0,0,0,.044.214.214,0,0,0,.073.135.218.218,0,0,0,.19.043l.2-.045c1.233-.273,7.973-1.6,11.46,1.046a.211.211,0,0,0,.059.031.2.2,0,0,0,.071.012.21.21,0,0,0,.169-.083s0,0,0,0A.213.213,0,0,0,3483.917,2464.4Z" transform="translate(-3177.03 -1571.225)"/>
    <path id="Path_15074" data-name="Path 15074" d="M3673.6,2298.273a16.812,16.812,0,0,0-9.046.645c-.079.026-.157.051-.236.08-.013-.159-.029-.315-.046-.469-.634-5.981-3.8-7.865-3.935-7.945a.217.217,0,0,0-.292.079.223.223,0,0,0-.027.125.216.216,0,0,0,.106.166c.034.019,3.348,2.011,3.784,8.293,0,.02,0,.04,0,.06a.215.215,0,0,0,.1.165.207.207,0,0,0,.116.034.2.2,0,0,0,.073-.014l.076-.026a16.843,16.843,0,0,1,9.216-.781.215.215,0,0,0,.261-.151.214.214,0,0,0-.151-.261Z" transform="translate(-3358.303 -1424.201)"/>
    <path id="Path_15075" data-name="Path 15075" d="M3272.863,2521.943q.278.378.546.753a31.554,31.554,0,0,0-2.246-7.949,37.644,37.644,0,0,0-4.18-7.437h0a.213.213,0,0,0-.338.26h0a37.269,37.269,0,0,1,4.129,7.354A31.629,31.629,0,0,1,3272.863,2521.943Z" transform="translate(-2989.967 -1627.057)"/>
    <path id="Path_15076" data-name="Path 15076" d="M3456.286,2880.549a37.067,37.067,0,0,0-5.873-3.49,23.987,23.987,0,0,0-6.249-2.045c.063.155.123.309.183.463,5.615,1,11.1,4.984,11.639,5.379l.042.031a.213.213,0,0,0,.292-.307A.23.23,0,0,0,3456.286,2880.549Z" transform="translate(-3156.209 -1971.397)"/>
    <path id="Path_15077" data-name="Path 15077" d="M3053.625,1686.09c.623-11.325-3.916-21.952-7.833-28.874a79.948,79.948,0,0,0-7-10.364h0l-.994,22.849a.236.236,0,0,1,.044.007.214.214,0,0,1,.154.259c-.323,1.265-.637,2.527-.931,3.785a18.962,18.962,0,0,1,1.9,8.011,6.3,6.3,0,0,1,.563,3.281c-.273,1.758-2.041,3.568-4.34,5.227a31.561,31.561,0,0,0,1.417,7.651c.4.27,2.738,1.875,5.864,4.434C3049.476,1698.858,3053.224,1693.405,3053.625,1686.09Z" transform="translate(-2773.303 -821.534)" fill="#5e99a0"/>
    <path id="Path_15078" data-name="Path 15078" d="M3086.988,1630.851a.208.208,0,0,1-.119.033,79.823,79.823,0,0,1,7,10.365c3.917,6.921,8.455,17.548,7.833,28.873-.4,7.315-4.151,12.767-11.161,16.267l.35.287a23.576,23.576,0,0,0,5.555-3.865,18.289,18.289,0,0,0,5.683-12.667c.628-11.428-3.942-22.136-7.887-29.107a79.5,79.5,0,0,0-7.707-11.242c.184.247.358.5.522.76A.213.213,0,0,1,3086.988,1630.851Z" transform="translate(-2821.38 -805.566)" fill="#1a1a1a"/>
    <path id="Path_15079" data-name="Path 15079" d="M3038.382,2194.722a.221.221,0,0,1-.054.007.213.213,0,0,1-.182-.1,5.852,5.852,0,0,1,.537,3.059c-.245,1.578-1.836,3.234-3.946,4.781.008.17.017.341.028.512,2.3-1.659,4.067-3.47,4.341-5.228a6.289,6.289,0,0,0-.564-3.281v.051A.214.214,0,0,1,3038.382,2194.722Z" transform="translate(-2772.885 -1334.24)" fill="#1a1a1a"/>
    <path id="Path_15080" data-name="Path 15080" d="M3053.743,2086.24a18.771,18.771,0,0,0-1.625-6.6c-.246,1.075-.476,2.149-.684,3.219C3052.151,2083.824,3052.956,2084.973,3053.743,2086.24Z" transform="translate(-2788.517 -1226.732)"/>
    <path id="Path_15081" data-name="Path 15081" d="M3050.519,2069.5a18.8,18.8,0,0,1,1.628,6.6c-.787-1.267-1.594-2.417-2.31-3.379-.037.19-.074.38-.109.57.774,1.055,1.634,2.31,2.453,3.686,0,0,0,0,0,0a.213.213,0,0,0,.182.1.184.184,0,0,0,.052-.006.212.212,0,0,0,.159-.2c0-.017,0-.034,0-.05a18.955,18.955,0,0,0-1.9-8.012C3050.625,2069.035,3050.572,2069.266,3050.519,2069.5Z" transform="translate(-2786.919 -1216.586)"/>
    <path id="Path_15082" data-name="Path 15082" d="M2370.112,1051.946a.206.206,0,0,1-.07.012.214.214,0,0,1-.212-.182l-1.007-6.8a.212.212,0,0,1,.06-.182l2-2c.978-.978.876-3.245-.2-4.491-1.178-1.361-3.12-1.194-5.33.456a.213.213,0,0,1-.181.036c-4.867-1.264-8.186-3.472-9.864-6.562a9.9,9.9,0,0,1-1.082-3.207,22.254,22.254,0,0,0-3.651,9.621c-.549,3.909-.074,7.592,1.3,10.1a7.1,7.1,0,0,0,7.413,3.78,6.579,6.579,0,0,0,3.429-2.271.213.213,0,0,1,.383.113c.1,1.382-1.563,5.484-1.815,6.1a15.147,15.147,0,0,1,.281,2.733,73.807,73.807,0,0,1,11.872-2.326,28.221,28.221,0,0,1-1.124-5.933A19.252,19.252,0,0,1,2370.112,1051.946Z" transform="translate(-2132.128 -243.102)" fill="#fff"/>
    <path id="Path_15083" data-name="Path 15083" d="M2355.178,1050.244a15.178,15.178,0,0,0-.281-2.733l-.03.072a.214.214,0,0,1-.2.132h-.025a.213.213,0,0,1-.186-.178,7.525,7.525,0,0,0-1.676-3.6.213.213,0,0,1,.109-.363l.008,0a7.1,7.1,0,0,1-7.413-3.78c-1.375-2.513-1.85-6.2-1.3-10.1a22.252,22.252,0,0,1,3.651-9.621c-.032-.208-.057-.412-.077-.61-4.32,5.682-5.564,15.209-2.646,20.542a7.487,7.487,0,0,0,7.73,4.009c.806.918,1.844,2.792,1.9,6.361Z" transform="translate(-2125.743 -234.137)" fill="#1a1a1a"/>
    <path id="Path_15084" data-name="Path 15084" d="M2694.85,1369.559a28.165,28.165,0,0,0,1.124,5.933c.15-.013.3-.026.445-.037a27.587,27.587,0,0,1-1.151-6.119C2695.125,1369.414,2694.985,1369.489,2694.85,1369.559Z" transform="translate(-2454.667 -561.711)" fill="#1a1a1a"/>
    <path id="Path_15087" data-name="Path 15087" d="M3726.966,1797.182a.984.984,0,0,0,1.387,0l1.792-1.792a.214.214,0,0,1,.3,0l1.792,1.792a.981.981,0,0,0,1.386-1.388l-1.791-1.79a.213.213,0,0,1,0-.3l1.791-1.791a.98.98,0,0,0-1.386-1.387l-1.792,1.79a.213.213,0,0,1-.3,0l-1.792-1.79a.981.981,0,0,0-1.387,0,.978.978,0,0,0,0,1.387l1.79,1.791a.211.211,0,0,1,0,.3l-1.79,1.79a.98.98,0,0,0,0,1.388Z" transform="translate(-3420.712 -955.778)"/>
    <path id="Path_15088" data-name="Path 15088" d="M3719.984,1790.226a1.409,1.409,0,0,0,2.4,1l1.64-1.64,1.64,1.64a1.412,1.412,0,0,0,1.992,0,1.411,1.411,0,0,0,0-1.991l-1.641-1.64,1.641-1.64a1.41,1.41,0,0,0,0-1.991,1.411,1.411,0,0,0-1.992,0l-1.64,1.64-1.64-1.64a1.408,1.408,0,0,0-1.992,1.991l1.64,1.64-1.64,1.64A1.4,1.4,0,0,0,3719.984,1790.226Zm2.505-2.484a.213.213,0,0,0,0-.3l-1.791-1.791a.981.981,0,0,1,1.388-1.387l1.791,1.791a.213.213,0,0,0,.3,0l1.792-1.791a.981.981,0,0,1,1.674.694.972.972,0,0,1-.287.694l-1.791,1.791a.213.213,0,0,0,0,.3l1.791,1.791a.981.981,0,1,1-1.387,1.387l-1.792-1.791a.213.213,0,0,0-.3,0l-1.791,1.791a.981.981,0,1,1-1.388-1.387Z" transform="translate(-3414.445 -949.516)"/>
    <rect id="Rectangle_23798" data-name="Rectangle 23798" width="2.237" height="2.236" transform="translate(84.892 820.319)"/>
    <path id="Path_15089" data-name="Path 15089" d="M252.567,1564.839h2.664a.213.213,0,0,0,.213-.213v-2.663a.213.213,0,0,0-.213-.213h-2.664a.213.213,0,0,0-.213.213v2.663A.213.213,0,0,0,252.567,1564.839Zm.213-2.663h2.237v2.236h-2.237Z" transform="translate(-167.888 -741.857)"/>
    <rect id="Rectangle_23799" data-name="Rectangle 23799" width="2.237" height="2.236" transform="translate(93.362 820.319)"/>
    <path id="Path_15090" data-name="Path 15090" d="M385.421,1564.839h2.664a.213.213,0,0,0,.213-.213v-2.663a.213.213,0,0,0-.213-.213h-2.664a.214.214,0,0,0-.213.213v2.663A.213.213,0,0,0,385.421,1564.839Zm.213-2.663h2.237v2.236h-2.237Z" transform="translate(-292.272 -741.857)"/>
    <rect id="Rectangle_23800" data-name="Rectangle 23800" width="2.237" height="2.236" transform="translate(101.832 820.319)"/>
    <path id="Path_15091" data-name="Path 15091" d="M520.938,1561.749h-2.664a.214.214,0,0,0-.213.213v2.663a.213.213,0,0,0,.213.213h2.664a.213.213,0,0,0,.213-.213v-2.663A.214.214,0,0,0,520.938,1561.749Zm-.213,2.663h-2.237v-2.236h2.237Z" transform="translate(-416.656 -741.857)"/>
    <rect id="Rectangle_23801" data-name="Rectangle 23801" width="2.237" height="2.236" transform="translate(110.302 820.319)"/>
    <path id="Path_15092" data-name="Path 15092" d="M653.792,1561.749h-2.664a.213.213,0,0,0-.213.213v2.663a.213.213,0,0,0,.213.213h2.664a.213.213,0,0,0,.213-.213v-2.663A.214.214,0,0,0,653.792,1561.749Zm-.213,2.663h-2.237v-2.236h2.237Z" transform="translate(-541.04 -741.857)"/>
    <rect id="Rectangle_23802" data-name="Rectangle 23802" width="2.237" height="2.236" transform="translate(84.892 827.739)"/>
    <path id="Path_15093" data-name="Path 15093" d="M252.567,1681.23h2.664a.214.214,0,0,0,.213-.214v-2.663a.213.213,0,0,0-.213-.214h-2.664a.213.213,0,0,0-.213.214v2.663A.214.214,0,0,0,252.567,1681.23Zm.213-2.664h2.237v2.237h-2.237Z" transform="translate(-167.888 -850.827)"/>
    <rect id="Rectangle_23803" data-name="Rectangle 23803" width="2.237" height="2.236" transform="translate(93.362 827.739)"/>
    <path id="Path_15094" data-name="Path 15094" d="M385.421,1681.23h2.664a.214.214,0,0,0,.213-.214v-2.663a.213.213,0,0,0-.213-.214h-2.664a.213.213,0,0,0-.213.214v2.663A.214.214,0,0,0,385.421,1681.23Zm.213-2.664h2.237v2.237h-2.237Z" transform="translate(-292.272 -850.827)"/>
    <rect id="Rectangle_23804" data-name="Rectangle 23804" width="2.237" height="2.236" transform="translate(101.832 827.739)"/>
    <path id="Path_15095" data-name="Path 15095" d="M520.938,1678.139h-2.664a.213.213,0,0,0-.213.214v2.663a.214.214,0,0,0,.213.214h2.664a.214.214,0,0,0,.213-.214v-2.663A.213.213,0,0,0,520.938,1678.139Zm-.213,2.663h-2.237v-2.237h2.237Z" transform="translate(-416.656 -850.827)"/>
    <rect id="Rectangle_23805" data-name="Rectangle 23805" width="2.237" height="2.236" transform="translate(110.302 827.739)"/>
    <path id="Path_15096" data-name="Path 15096" d="M653.792,1678.139h-2.664a.213.213,0,0,0-.213.214v2.663a.214.214,0,0,0,.213.214h2.664a.214.214,0,0,0,.213-.214v-2.663A.213.213,0,0,0,653.792,1678.139Zm-.213,2.663h-2.237v-2.237h2.237Z" transform="translate(-541.04 -850.827)"/>
    <path id="Path_15097" data-name="Path 15097" d="M1994.941,1458.692l-6.291,3.075,6.291,3.46Z" transform="translate(-1793.489 -645.37)"/>
    <path id="Path_15098" data-name="Path 15098" d="M1978.151,1453.79l6.967,3.832a.217.217,0,0,0,.1.026.209.209,0,0,0,.108-.03.213.213,0,0,0,.1-.183V1450.2a.213.213,0,0,0-.307-.192l-6.968,3.406a.213.213,0,0,0-.009.379Zm6.857-3.251v6.535l-6.291-3.46Z" transform="translate(-1783.556 -637.216)"/>
    <path id="Path_15099" data-name="Path 15099" d="M2428.545,890.131c0-.222.011-.441.028-.658-5.522-.208-10.956,1.759-12.234,4.547a10.113,10.113,0,0,0,.791,7.345c1.609,2.959,4.8,5.085,9.494,6.321,3.371-2.474,5.195-1.06,5.825-.332,1.23,1.421,1.319,3.933.181,5.072l-1.921,1.921.954,6.429a23.749,23.749,0,0,0,7.085-4.518,15.372,15.372,0,0,0,4.6-15.731,14.69,14.69,0,0,0-1.624-4.071,8.105,8.105,0,0,1-13.178-6.325Z" transform="translate(-2193.576 -112.427)"/>
    <path id="Path_15100" data-name="Path 15100" d="M2409.242,892.031a9.9,9.9,0,0,0,1.082,3.207c1.678,3.09,5,5.3,9.864,6.562a.211.211,0,0,0,.181-.036c2.209-1.65,4.151-1.817,5.33-.456,1.079,1.246,1.181,3.513.2,4.491l-2,2a.214.214,0,0,0-.06.182l1.008,6.8a.214.214,0,0,0,.1.151.21.21,0,0,0,.18.019,19.339,19.339,0,0,0,2.2-1c.134-.07.275-.145.417-.223a23.589,23.589,0,0,0,4.854-3.474,15.972,15.972,0,0,0,4.732-16.151,15.035,15.035,0,0,0-1.718-4.242q-.156.14-.321.271a14.636,14.636,0,0,1,1.624,4.071,15.371,15.371,0,0,1-4.6,15.731,23.73,23.73,0,0,1-7.086,4.518l-.954-6.429,1.921-1.921c1.139-1.138,1.049-3.65-.181-5.072-.629-.728-2.453-2.142-5.824.333-4.691-1.236-7.885-3.363-9.495-6.322a10.117,10.117,0,0,1-.792-7.346c1.28-2.787,6.712-4.754,12.235-4.547q.017-.215.046-.427c-5.777-.237-11.313,1.814-12.675,4.808,0,.007-.006.014-.009.021a10.191,10.191,0,0,0-.343,3.871C2409.184,891.619,2409.21,891.823,2409.242,892.031Z" transform="translate(-2187.148 -106.101)"/>
    <ellipse id="Ellipse_1263" data-name="Ellipse 1263" cx="7.685" cy="7.682" rx="7.685" ry="7.682" transform="translate(235.395 770.022)"/>
    <path id="Path_15101" data-name="Path 15101" d="M2613.071,780.269c-.017.217-.029.436-.029.658a8.106,8.106,0,0,0,13.179,6.325c.109-.088.215-.178.321-.271a8.108,8.108,0,1,0-13.426-7.139C2613.1,779.983,2613.083,780.126,2613.071,780.269Zm15.767.658a7.685,7.685,0,1,1-7.684-7.682A7.692,7.692,0,0,1,2628.838,780.927Z" transform="translate(-2378.075 -3.223)"/>
    <path id="Path_15102" data-name="Path 15102" d="M2413.44,1547.176a.213.213,0,0,1,.216-.16l.993-22.849a.214.214,0,0,1-.172-.1,12.921,12.921,0,0,0-4.014-3.955,29.078,29.078,0,0,0-13.629-4.3,3.392,3.392,0,0,1-.541,2.322.213.213,0,0,1-.139.076c-1.449.167-11.529,1.306-16.847,1.306a7.7,7.7,0,0,1-3.139-.366,5.153,5.153,0,0,1-.905-.561,65.715,65.715,0,0,0-6.516,2.306c-.019.015-.057.043-.105.083l.19,26.23a.208.208,0,0,1,.084.016.214.214,0,0,1,.115.28c-.006.012-.167.393-.487,1.043a16.055,16.055,0,0,1,1.745,8.905.212.212,0,0,1-.167.2h-.005c3.724,9.2,3.495,16.05,2.278,21.922,30.675-1.7,38.424-3.919,39.622-4.327C2409.1,1565.988,2411.014,1556.68,2413.44,1547.176Z" transform="translate(-2149.163 -698.848)" fill="#5e99a0"/>
    <path id="Path_15103" data-name="Path 15103" d="M2368.4,2148.815l.266-.015c1.217-5.872,1.446-12.717-2.278-21.922a.245.245,0,0,1-.041,0,.214.214,0,0,1-.189-.115c-.528-1.006-1.072-2.014-1.6-2.966,3.688,7.715,4.67,13.844,4.438,19.082a36.836,36.836,0,0,1-.775,5.944A.943.943,0,0,1,2368.4,2148.815Z" transform="translate(-2145.438 -1268.077)" fill="#1a1a1a"/>
    <path id="Path_15104" data-name="Path 15104" d="M3027.8,2025.308a49.551,49.551,0,0,1,.955-11.527c.036-.19.072-.381.11-.57.207-1.071.437-2.144.683-3.219q.078-.345.159-.691c.294-1.259.608-2.521.931-3.786a.213.213,0,0,0-.154-.26.277.277,0,0,0-.043-.006.215.215,0,0,0-.217.161c-2.424,9.5-4.34,18.813-1.424,28.07.12-.041.175-.063.181-.066a.213.213,0,0,1,.2.017l.061.041a31.531,31.531,0,0,1-1.417-7.651C3027.82,2025.65,3027.811,2025.479,3027.8,2025.308Z" transform="translate(-2765.949 -1157.082)" fill="#1a1a1a"/>
    <path id="Path_15105" data-name="Path 15105" d="M2368.792,1556.389a.213.213,0,1,1,.137.4l-.066.025v.041c.048-.039.085-.068.1-.082a65.5,65.5,0,0,1,6.517-2.306,3.162,3.162,0,0,1-.368-.334c-3.1.947-5.31,1.829-6.06,2.14l-.277.117Z" transform="translate(-2149.385 -734.729)" fill="#1a1a1a"/>
    <path id="Path_15106" data-name="Path 15106" d="M2811.589,1509.255a29.082,29.082,0,0,1,13.629,4.3,12.915,12.915,0,0,1,4.014,3.955.213.213,0,0,0,.172.1h0a.209.209,0,0,0,.12-.033.212.212,0,0,0,.067-.294c-.164-.261-.338-.514-.522-.761a13.779,13.779,0,0,0-3.621-3.325,29.156,29.156,0,0,0-13.467-4.353c-.147-.013-.3-.024-.443-.036Q2811.575,1509.043,2811.589,1509.255Z" transform="translate(-2563.917 -692.292)" fill="#1a1a1a"/>
    <path id="Path_15107" data-name="Path 15107" d="M2344.274,2039.136c.813,1.426,1.87,3.309,2.9,5.238a15.316,15.316,0,0,0-1.587-7.61C2345.257,2037.4,2344.822,2038.209,2344.274,2039.136Z" transform="translate(-2126.441 -1186.587)"/>
    <path id="Path_15108" data-name="Path 15108" d="M2343.869,2038.183a16.057,16.057,0,0,0-1.745-8.906c-.072.147-.152.305-.239.478a15.324,15.324,0,0,1,1.587,7.61c-1.025-1.927-2.081-3.811-2.9-5.237-.08.137-.165.277-.251.42.46.808.991,1.75,1.545,2.757.525.952,1.071,1.96,1.6,2.967a.214.214,0,0,0,.189.115.178.178,0,0,0,.04-.005h.005A.213.213,0,0,0,2343.869,2038.183Z" transform="translate(-2122.744 -1179.578)"/>
    <path id="Path_15109" data-name="Path 15109" d="M2198.45,2488.709c-.546-9.269-7.673-18.246-13.571-24.152a95.989,95.989,0,0,0-12.8-10.705c-.949.358-8.065,2.629-40.12,4.4h0c-.634,0-2.882,1.677-10.984,12.864-4.3,5.943-8.36,11.961-8.962,12.855,3.36,5.391,15.26,10.511,30.4,13.069a110.709,110.709,0,0,0,30.759.967C2183.941,2496.7,2192.678,2493.49,2198.45,2488.709Z" transform="translate(-1908.988 -1577.086)"/>
    <path id="Path_15110" data-name="Path 15110" d="M2192.029,2482.132a24.371,24.371,0,0,0-1.755-7.627c-.06-.155-.12-.308-.184-.463q-.487-1.178-1.094-2.376c-.069-.135-.138-.271-.209-.407q-.617-1.184-1.348-2.384-.853-1.4-1.861-2.812-.266-.374-.545-.752a69.02,69.02,0,0,0-6.709-7.721c-1.032-1.034-2.063-2.011-3.068-2.926-1.262-1.15-2.482-2.2-3.61-3.128-.116-.1-.233-.193-.348-.287-3.126-2.559-5.465-4.163-5.864-4.433l-.062-.042a.214.214,0,0,0-.2-.018,1.9,1.9,0,0,1-.179.065c-1.2.408-8.946,2.623-39.621,4.327l-.266.015a.907.907,0,0,0-.176.012c-.651.117-2.647,1.292-11.147,13.027-4.646,6.415-9,12.917-9.047,12.982a.213.213,0,0,0-.006.228c1.674,2.792,5.529,5.534,11.146,7.932a88.813,88.813,0,0,0,19.622,5.454,117.476,117.476,0,0,0,19.339,1.632,96.573,96.573,0,0,0,11.542-.663c9.608-1.161,17.618-3.842,23.377-7.8q1.163-.8,2.2-1.664A.21.21,0,0,0,2192.029,2482.132Zm-56.466,8.245c-15.143-2.557-27.042-7.677-30.4-13.068.6-.895,4.659-6.912,8.962-12.856,8.1-11.186,10.35-12.863,10.984-12.863h0c32.054-1.769,39.17-4.038,40.119-4.4a96.039,96.039,0,0,1,12.8,10.705c5.9,5.906,13.025,14.883,13.57,24.151-5.771,4.781-14.507,7.994-25.273,9.3A110.7,110.7,0,0,1,2135.563,2490.377Z" transform="translate(-1902.136 -1570.424)"/>
    <path id="Path_15112" data-name="Path 15112" d="M1443.315,3005.9h0a.228.228,0,0,1-.067-.013A.23.23,0,0,0,1443.315,3005.9Z" transform="translate(-1282.859 -2093.927)" fill="#1a1a1a"/>
    <path id="Path_15114" data-name="Path 15114" d="M2109.663,2657.239c-.01-.009-.021-.014-.032-.021.01.005.018.012.027.018Z" transform="translate(-1906.757 -1767.485)" fill="#1a1a1a"/>
    <path id="Path_15115" data-name="Path 15115" d="M1061.368,2657.5a.142.142,0,0,1,.022-.021A.19.19,0,0,0,1061.368,2657.5Z" transform="translate(-887.839 -1859.343)" fill="#1a1a1a"/>
    <path id="Path_15116" data-name="Path 15116" d="M1062.148,2657.03l.029-.012Z" transform="translate(-888.569 -1858.909)" fill="#1a1a1a"/>
    <path id="Path_15117" data-name="Path 15117" d="M1060.787,2658.2a.189.189,0,0,1,.016-.025A.189.189,0,0,0,1060.787,2658.2Z" transform="translate(-887.294 -1859.989)" fill="#1a1a1a"/>
    <path id="Path_15118" data-name="Path 15118" d="M2110.94,2658.5a.168.168,0,0,0-.018-.039s0,0,0,.006A.145.145,0,0,1,2110.94,2658.5Z" transform="translate(-1907.966 -1768.654)" fill="#1a1a1a"/>
    <path id="Path_15119" data-name="Path 15119" d="M2110.359,2657.75a.2.2,0,0,0-.034-.039.209.209,0,0,1,.034.041Z" transform="translate(-1907.407 -1767.947)" fill="#1a1a1a"/>
    <path id="Path_15120" data-name="Path 15120" d="M2111.29,2659.421c0-.011,0-.022-.005-.033a.039.039,0,0,1,0,.01C2111.287,2659.406,2111.29,2659.414,2111.29,2659.421Z" transform="translate(-1908.306 -1769.518)" fill="#1a1a1a"/>
    <path id="Path_15121" data-name="Path 15121" d="M2111.282,2660.311a.19.19,0,0,0,.007-.044c0,.006,0,.012,0,.018A.233.233,0,0,1,2111.282,2660.311Z" transform="translate(-1908.304 -1770.34)" fill="#1a1a1a"/>
    <path id="Path_15122" data-name="Path 15122" d="M2111.376,2660.154v0h0Z" transform="translate(-1908.39 -1770.233)" fill="#1a1a1a"/>
    <path id="Path_15124" data-name="Path 15124" d="M2111.255,2659.243a.074.074,0,0,0,0-.01s0-.008,0-.011A.123.123,0,0,1,2111.255,2659.243Z" transform="translate(-1908.274 -1769.362)" fill="#1a1a1a"/>
    <path id="Path_15125" data-name="Path 15125" d="M2111.331,2660.187a.167.167,0,0,0,0-.017v0a.009.009,0,0,1,0,0v0A.147.147,0,0,1,2111.331,2660.187Z" transform="translate(-1908.349 -1770.244)" fill="#1a1a1a"/>
    <path id="Path_15126" data-name="Path 15126" d="M2110.88,2658.377a.016.016,0,0,0,0-.006l0-.007Z" transform="translate(-1907.922 -1768.558)" fill="#1a1a1a"/>
    <path id="Path_15127" data-name="Path 15127" d="M2110.064,2657.509a.018.018,0,0,0-.008-.006.01.01,0,0,0-.006,0S2110.06,2657.5,2110.064,2657.509Z" transform="translate(-1907.15 -1767.749)" fill="#1a1a1a"/>
    <path id="Path_15132" data-name="Path 15132" d="M1494.587,2712.127a.32.32,0,0,0,.272-.153c0-.008.009-.016.013-.024-.229.057-.457.109-.685.153a2.821,2.821,0,0,0,.353.025Z" transform="translate(-1330.55 -1818.728)" fill="#1a1a1a"/>
    <path id="Path_15137" data-name="Path 15137" d="M1124.75,2241.194a.226.226,0,0,0,.055-.007.226.226,0,0,1-.055.007Z" transform="translate(-984.666 -1377.978)" fill="#1a1a1a"/>
    <path id="Path_15139" data-name="Path 15139" d="M1123.384,2240.981l-.02-.01Z" transform="translate(-983.369 -1377.776)" fill="#1a1a1a"/>
    <path id="Path_15141" data-name="Path 15141" d="M1079.769,1291.249l.013-.007Z" transform="translate(-942.553 -488.596)"/>
    <path id="Path_15142" data-name="Path 15142" d="M1080.361,1290.986l.018-.005Z" transform="translate(-943.107 -488.351)"/>
    <path id="Path_15148" data-name="Path 15148" d="M1748.334,1673.525c-.013.011-.234.209-.592.549q.519.934,1.03,1.809l-.385-2.439A.209.209,0,0,1,1748.334,1673.525Z" transform="translate(-1567.941 -846.43)"/>
    <path id="Path_15158" data-name="Path 15158" d="M1399.585,1388.947l-.741-1.641-.016-.036a13.987,13.987,0,0,0-3.053-4.74c-.125-.122-.251-.239-.38-.354a9.794,9.794,0,0,0-2.876-1.791,12.809,12.809,0,0,0-9.119.224c-.173.028-.877.171-1.039.648-.1.289.024.613.366.959.9.915,4,.477,5.213.264a9.616,9.616,0,0,0-.595,1.455c-.048.15-.092.306-.131.466a4.524,4.524,0,0,0,.1,2.864,3.619,3.619,0,0,0,2.7,1.97l.162.038a5.1,5.1,0,0,1,2.373,1.21,7.947,7.947,0,0,1,1.974,2.965q.082.2.156.4a15.4,15.4,0,0,1,.705,2.734c.114-.15.233-.3.359-.462a15.712,15.712,0,0,0-.539-2.1c-.976-2.906-2.684-4.694-4.939-5.173a3.3,3.3,0,0,1-2.561-1.76c-.854-1.958.807-4.77.824-4.8a.214.214,0,0,0-.183-.323.217.217,0,0,0-.042,0c-1.207.246-4.5.714-5.269-.061-.212-.216-.307-.4-.266-.522.07-.21.518-.338.724-.367a.224.224,0,0,0,.057-.016c.045-.02,4.525-1.957,8.817-.229,2.657,1.07,4.7,3.307,6.073,6.656l2.153,4.767q.207-.068.416-.116l-.01-.022Z" transform="translate(-1225.823 -571.348)" fill="#1a1a1a"/>
    <path id="Path_15159" data-name="Path 15159" d="M1674.551,1606.038c-3.857,4.906-7.846,9.98-12.511,10.277-4.088.261-7.626-1.487-11.136-5.5a51.75,51.75,0,0,1-5.871-8.755c-2.024,1.97-6.7,6.917-6.647,10.53.878,2.208,1.88,4.6,2.984,7.044,5.569,12.319,11.2,20.222,16.273,22.855a7.578,7.578,0,0,0,5.953.688c7.634-2.445,13.053-7.907,16.254-12.058a42.956,42.956,0,0,0,5.179-8.525.214.214,0,0,1,.2-.131l-.19-26.23v-.042C1681.252,1597.516,1677.846,1601.847,1674.551,1606.038Z" transform="translate(-1465.555 -774.102)" fill="#5e99a0"/>
    <path id="Path_15160" data-name="Path 15160" d="M1677.6,1867.462c.548-.925.983-1.734,1.308-2.372.088-.172.167-.331.239-.477.319-.65.481-1.031.486-1.043a.213.213,0,1,0-.393-.165,42.991,42.991,0,0,1-5.179,8.525c-3.2,4.151-8.62,9.612-16.253,12.058a7.582,7.582,0,0,1-5.953-.689c-5.077-2.633-10.7-10.536-16.273-22.855-1.1-2.442-2.106-4.837-2.984-7.045,0,.013,0,.027,0,.04a.214.214,0,0,1-.368.152l-.026-.029q.238.6.488,1.213.329.809.677,1.645c.393.94.8,1.9,1.233,2.874q.29.658.59,1.322l.141.309q.565,1.243,1.128,2.421l.187.39q.681,1.413,1.357,2.732l.2.386c4.633,8.939,9.146,14.589,13.454,16.823a8.759,8.759,0,0,0,4.046,1.068,7.287,7.287,0,0,0,2.234-.351c7.743-2.481,13.23-8.011,16.469-12.214a46.469,46.469,0,0,0,2.941-4.3C1677.43,1867.74,1677.515,1867.6,1677.6,1867.462Z" transform="translate(-1459.763 -1014.914)" fill="#1a1a1a"/>
    <path id="Path_15161" data-name="Path 15161" d="M1752.585,1607.481c-2.79-1.867-5.342-5.037-7.983-9.4q-.294-.484-.588-.988-.512-.875-1.031-1.808c-.1.093-.206.2-.324.312a51.7,51.7,0,0,0,5.871,8.756c3.51,4.014,7.049,5.762,11.136,5.5,4.665-.3,8.653-5.371,12.51-10.277,3.295-4.191,6.7-8.522,10.482-9.847l.067-.025a.213.213,0,0,0-.138-.4l-.012,0c-3.922,1.343-7.385,5.748-10.735,10.009-3.8,4.832-7.728,9.83-12.2,10.115a10.929,10.929,0,0,1-6.592-1.65C1752.894,1607.682,1752.739,1607.584,1752.585,1607.481Z" transform="translate(-1563.182 -767.64)" fill="#1a1a1a"/>
    <path id="Path_15162" data-name="Path 15162" d="M2469.4,1476.749a.21.21,0,0,1,.042.026c1.011.8,12.236-.156,19.6-1,.187-.3.851-1.591-.078-3.915-.267-.667-1.5-.932-3.236-.932-4.711,0-13.161,1.949-16.343,3.15-.949.359-1.459.768-1.475,1.184C2467.881,1475.9,2468.973,1476.552,2469.4,1476.749Z" transform="translate(-2242.19 -656.824)" fill="#fff"/>
    <path id="Path_15163" data-name="Path 15163" d="M2462.023,1470.334a5.1,5.1,0,0,0,.906.561,7.7,7.7,0,0,0,3.139.366c5.317,0,15.4-1.139,16.846-1.306a.217.217,0,0,0,.14-.077,3.393,3.393,0,0,0,.541-2.322c-.01-.142-.026-.291-.049-.447a7.387,7.387,0,0,0-.458-1.641c-.44-1.1-2.622-1.337-5.412-1.131-.147.011-.3.023-.445.036a73.753,73.753,0,0,0-11.872,2.326l-.435.123c-.862.247-1.541.464-1.96.623-1.155.436-1.728.949-1.752,1.567a1.411,1.411,0,0,0,.444.987A3.368,3.368,0,0,0,2462.023,1470.334Zm-.385-1.305c.016-.416.527-.825,1.476-1.184,3.181-1.2,11.631-3.15,16.342-3.15,1.738,0,2.968.266,3.235.933.93,2.323.265,3.619.079,3.915-7.363.846-18.588,1.8-19.6,1a.175.175,0,0,0-.042-.026C2462.706,1470.32,2461.614,1469.668,2461.638,1469.028Z" transform="translate(-2235.922 -650.593)" fill="#1a1a1a"/>
    <path id="Path_15164" data-name="Path 15164" d="M1583.374,1585.9c-.387-.624-1.887-3.071-3.315-5.79-3.729-.635-7.611,5.561-8.064,6.308.208.855,1.973,7.968,3.828,10.545C1576.245,1592.534,1582.352,1586.827,1583.374,1585.9Zm-7.931,7.161a.972.972,0,1,1,.972-.972A.973.973,0,0,1,1575.443,1593.061Z" transform="translate(-1403.397 -759.004)" fill="#fff"/>
    <path id="Path_15165" data-name="Path 15165" d="M1576.4,1580.687c.118-.115.226-.219.324-.312.358-.341.579-.538.592-.549a.207.207,0,0,0,.054-.081.211.211,0,0,0-.015-.192l-.021-.033c-.2-.32-1.861-2.992-3.42-5.973a.225.225,0,0,0-.028-.041.213.213,0,0,0-.119-.07,3.894,3.894,0,0,0-1.662.037c-.139.032-.278.071-.416.116a11.655,11.655,0,0,0-4.848,3.919c-.125.157-.245.312-.359.462A22.074,22.074,0,0,0,1565.1,1580a.213.213,0,0,0-.023.156,57.093,57.093,0,0,0,2.955,9.075q.095.2.19.392a7.906,7.906,0,0,0,1.128,1.753l.026.029a.213.213,0,0,0,.368-.151c0-.013,0-.027,0-.039C1569.7,1587.6,1574.372,1582.658,1576.4,1580.687Zm-10.881-.543c.453-.746,4.334-6.943,8.064-6.307,1.428,2.719,2.928,5.166,3.315,5.79-1.023.927-7.129,6.634-7.551,11.063C1567.489,1588.111,1565.723,1581,1565.515,1580.144Z" transform="translate(-1396.918 -752.731)" fill="#1a1a1a"/>
    <path id="Path_15167" data-name="Path 15167" d="M51.268,2431.518h.213v-1.154a4.233,4.233,0,0,1,4.229-4.227h47.872a4.233,4.233,0,0,1,4.229,4.227v1.154h.213a.213.213,0,0,1,.213.213v-1.367a4.661,4.661,0,0,0-4.656-4.654H55.711a4.661,4.661,0,0,0-4.656,4.654v1.367A.213.213,0,0,1,51.268,2431.518Z" transform="translate(58.064 -1642.347)"/>
    <path id="Path_15168" data-name="Path 15168" d="M51.268,2523.166h.213v-5.926h56.331v5.926h.213a.213.213,0,0,1,.213.214v-6.353a.213.213,0,0,0-.213-.214H51.268a.213.213,0,0,0-.213.214v6.353A.213.213,0,0,1,51.268,2523.166Z" transform="translate(58.064 -1727.643)" fill="#1a1a1a"/>
    <path id="Path_15171" data-name="Path 15171" d="M722.588,2668.166a4.025,4.025,0,1,0-4.026-4.024A4.03,4.03,0,0,0,722.588,2668.166Zm0-7.623a3.6,3.6,0,1,1-3.6,3.6A3.6,3.6,0,0,1,722.588,2660.543Z" transform="translate(-566.888 -1861.81)"/>
    <rect id="Rectangle_23807" data-name="Rectangle 23807" width="8.297" height="2.84" transform="translate(115.947 816.4)" fill="#fff"/>
    <rect id="Rectangle_23808" data-name="Rectangle 23808" width="8.297" height="2.84" transform="translate(127.323 816.4)" fill="#fff"/>
    <rect id="Rectangle_23809" data-name="Rectangle 23809" width="8.297" height="2.84" transform="translate(138.699 816.4)" fill="#fff"/>
    <rect id="Rectangle_23810" data-name="Rectangle 23810" width="8.297" height="2.84" transform="translate(150.075 816.4)" fill="#fff"/>
    <path id="Path_15176" data-name="Path 15176" d="M162.537,2710.416H151.68a.213.213,0,0,0-.213.213v2.36a.213.213,0,0,0,.213.213h10.857a.213.213,0,0,0,.213-.213v-2.36A.213.213,0,0,0,162.537,2710.416Zm-.213,2.36h-10.43v-1.934h10.43Z" transform="translate(-35.947 -1908.902)"/>
    <path id="Path_15177" data-name="Path 15177" d="M402.9,2710.416h-4.362a.213.213,0,0,0-.213.213v2.36a.213.213,0,0,0,.213.213H402.9a.213.213,0,0,0,.213-.213v-2.36A.213.213,0,0,0,402.9,2710.416Zm-.213,2.36h-3.935v-1.934h3.935Z" transform="translate(-267.063 -1908.902)"/>
    <path id="Path_15178" data-name="Path 15178" d="M2497.427,1375.691a7.485,7.485,0,0,1,1.39,2.876,29.083,29.083,0,0,0,1.516-4.735A6.721,6.721,0,0,1,2497.427,1375.691Z" transform="translate(-2269.83 -565.92)"/>
    <path id="Path_15179" data-name="Path 15179" d="M2491.662,1360.994a.214.214,0,0,0-.384-.113,6.577,6.577,0,0,1-3.43,2.271l-.009,0a.213.213,0,0,0-.108.363,7.523,7.523,0,0,1,1.677,3.6.213.213,0,0,0,.186.177l.025,0a.213.213,0,0,0,.2-.131c0-.01.016-.036.031-.072C2490.1,1366.478,2491.764,1362.375,2491.662,1360.994Zm-3.374,2.492a6.717,6.717,0,0,0,2.906-1.859,29.019,29.019,0,0,1-1.517,4.735A7.5,7.5,0,0,0,2488.288,1363.486Z" transform="translate(-2260.691 -553.715)"/>
    <path id="Path_15180" data-name="Path 15180" d="M1618.075,1760.135a.545.545,0,1,0,.545.546A.546.546,0,0,0,1618.075,1760.135Z" transform="translate(-1446.03 -927.595)"/>
    <path id="Path_15181" data-name="Path 15181" d="M1611.809,1753.442a.972.972,0,1,0,.972.972A.973.973,0,0,0,1611.809,1753.442Zm0,1.517a.545.545,0,1,1,.545-.545A.546.546,0,0,1,1611.809,1754.959Z" transform="translate(-1439.764 -921.329)"/>
    <path id="Path_15182" data-name="Path 15182" d="M3512.567,1376.867c1.727-.071,2.966-1.487,3.351-3.855.813-5-1.754-11.351-2.845-13.751C3511.591,1364.6,3512.432,1375.294,3512.567,1376.867Z" transform="translate(-3219.915 -552.278)"/>
    <path id="Path_15183" data-name="Path 15183" d="M3452.522,1364.9a4.226,4.226,0,0,0,3.726,3.929c-.16-1.838-1.029-12.868.654-18.143h0C3455.989,1352.7,3452.306,1361.129,3452.522,1364.9Z" transform="translate(-3164.026 -544.247)"/>
    <path id="Path_15184" data-name="Path 15184" d="M3450,1367.56c0-.033-.011-.118-.021-.246a4.227,4.227,0,0,1-3.727-3.929c-.217-3.768,3.467-12.2,4.377-14.215-.136-.032-.278-.067-.423-.1-.984,2.175-4.6,10.47-4.38,14.342a4.7,4.7,0,0,0,3.5,4.225,3.86,3.86,0,0,0,.744.114c.047,0,.094,0,.141,0A.213.213,0,0,1,3450,1367.56Z" transform="translate(-3157.76 -542.735)"/>
    <path id="Path_15185" data-name="Path 15185" d="M3515.792,1351.824l-.019,0c-.048.146-.093.3-.136.452,1.091,2.4,3.659,8.747,2.846,13.752-.386,2.367-1.625,3.784-3.351,3.855.01.119.016.188.017.2a.214.214,0,0,1-.193.232H3515c2.021,0,3.473-1.56,3.906-4.217.844-5.2-1.857-11.771-2.932-14.115q-.043-.095-.083-.18A.212.212,0,0,1,3515.792,1351.824Z" transform="translate(-3222.478 -545.291)"/>
    <path id="Path_15186" data-name="Path 15186" d="M3362.963,1238.031c-.4-.155-1.462-.436-2.494-.709-4.111-1.088-7.872-2.162-8.786-3.331-1.131.418-1.487,1.7-1.087,3.906.979.305,7.555,2.348,10.958,3.147A4.825,4.825,0,0,1,3362.963,1238.031Z" transform="translate(-3068.459 -434.994)" fill="#fff"/>
    <path id="Path_15187" data-name="Path 15187" d="M3344.179,1231.423l.15.047c1.016.317,6.916,2.146,10.412,3.014l.423.1h0c.012-.04.024-.081.038-.12a.213.213,0,0,1,.405.134c-.009.026-.017.053-.025.079l.019,0a.214.214,0,0,0,.1-.026.219.219,0,0,0,.042-.024.214.214,0,0,0,.076-.174,3.31,3.31,0,0,1,.022-.621,5.453,5.453,0,0,1,1.426-2.558.239.239,0,0,0,.04-.224c-.074-.222-.371-.323-2.895-.991-2.975-.787-7.954-2.1-8.625-3.277a.213.213,0,0,0-.243-.1c-1.481.429-1.992,1.938-1.525,4.481.006.03.009.059.015.089A.214.214,0,0,0,3344.179,1231.423Zm11.207,2.778c-3.4-.8-9.979-2.842-10.957-3.147-.4-2.208-.045-3.488,1.086-3.907.914,1.169,4.674,2.244,8.786,3.331,1.031.273,2.094.554,2.494.709A4.823,4.823,0,0,0,3355.386,1234.2Z" transform="translate(-3062.291 -428.151)" fill="#1a1a1a"/>
    <path id="Path_15188" data-name="Path 15188" d="M3506.17,1365.138c0-.009-.007-.077-.017-.2-.135-1.574-.976-12.265.506-17.607.042-.156.089-.306.136-.452.009-.026.016-.053.025-.08a.213.213,0,0,0-.405-.134c-.013.039-.026.079-.038.119-1.683,5.275-.814,16.305-.654,18.143.011.128.019.212.022.246a.212.212,0,0,0,.207.192h.025A.214.214,0,0,0,3506.17,1365.138Z" transform="translate(-3213.501 -540.353)" fill="#fff"/>
    <path id="Path_15157" data-name="Path 15157" d="M1404.714,1393.867c-1.373-3.348-3.415-5.585-6.073-6.655-4.291-1.729-8.772.208-8.816.228a.247.247,0,0,1-.057.017c-.206.029-.654.157-.724.367-.041.121.053.307.266.522.764.776,4.062.307,5.268.062a.213.213,0,0,1,.217.086.211.211,0,0,1,.009.232c-.017.028-1.678,2.84-.824,4.8a3.3,3.3,0,0,0,2.562,1.76c2.255.479,3.963,2.267,4.939,5.173a15.766,15.766,0,0,1,.54,2.1,11.658,11.658,0,0,1,4.848-3.92Z" transform="translate(-1232.101 -577.776)" fill="#fff"/>
    <g id="Group_51631" data-name="Group 51631" transform="translate(109.119 783.789)">
      <path id="Path_15166" data-name="Path 15166" d="M109.851,2432.4H61.978a4.234,4.234,0,0,0-4.229,4.228v1.154H114.08v-1.154A4.234,4.234,0,0,0,109.851,2432.4Z" transform="translate(-57.322 -2432.403)"/>
      <rect id="Rectangle_23806" data-name="Rectangle 23806" width="56.331" height="5.926" transform="translate(0.427 5.808)" fill="#fff"/>
      <path id="Path_15170" data-name="Path 15170" d="M108.026,2616.461H51.268a.214.214,0,0,0-.213.213V2641.7a4.66,4.66,0,0,0,4.656,4.654h47.872a4.66,4.66,0,0,0,4.656-4.654v-25.024A.213.213,0,0,0,108.026,2616.461Zm-4.443,29.465H55.711a4.233,4.233,0,0,1-4.229-4.228v-24.81h56.331v24.81A4.233,4.233,0,0,1,103.583,2645.926Z" transform="translate(-51.055 -2604.727)" fill="#1a1a1a"/>
      <ellipse id="Ellipse_1264" data-name="Ellipse 1264" cx="3.599" cy="3.598" rx="3.599" ry="3.598" transform="translate(42.983 14.944)"/>
      <path id="Path_15172" data-name="Path 15172" d="M160.4,2937.229H151.68a.213.213,0,0,0-.213.213v3.267a.214.214,0,0,0,.213.214H160.4a.214.214,0,0,0,.213-.214v-3.267A.213.213,0,0,0,160.4,2937.229Zm-.213,3.267h-8.3v-2.841h8.3Z" transform="translate(-145.065 -2905.044)" fill="#1a1a1a"/>
      <path id="Path_15173" data-name="Path 15173" d="M338.838,2937.229h-8.724a.213.213,0,0,0-.214.213v3.267a.214.214,0,0,0,.214.214h8.724a.214.214,0,0,0,.213-.214v-3.267A.213.213,0,0,0,338.838,2937.229Zm-.214,3.267h-8.3v-2.841h8.3Z" transform="translate(-312.124 -2905.044)" fill="#1a1a1a"/>
      <path id="Path_15174" data-name="Path 15174" d="M517.273,2937.229h-8.724a.213.213,0,0,0-.213.213v3.267a.214.214,0,0,0,.213.214h8.724a.214.214,0,0,0,.213-.214v-3.267A.213.213,0,0,0,517.273,2937.229Zm-.213,3.267h-8.3v-2.841h8.3Z" transform="translate(-479.183 -2905.044)" fill="#1a1a1a"/>
      <path id="Path_15175" data-name="Path 15175" d="M695.708,2937.229h-8.724a.213.213,0,0,0-.214.213v3.267a.214.214,0,0,0,.214.214h8.724a.214.214,0,0,0,.214-.214v-3.267A.213.213,0,0,0,695.708,2937.229Zm-.213,3.267h-8.3v-2.841h8.3Z" transform="translate(-646.242 -2905.044)" fill="#1a1a1a"/>
      <rect id="Rectangle_23811" data-name="Rectangle 23811" width="10.43" height="1.933" transform="translate(6.828 18.151)"/>
      <rect id="Rectangle_23812" data-name="Rectangle 23812" width="3.935" height="1.933" transform="translate(22.566 18.151)"/>
    </g>
  </g>
</svg>
