<svg xmlns="http://www.w3.org/2000/svg" width="17.151" height="11.439" viewBox="0 0 17.151 11.439">
  <g id="Group_45115" data-name="Group 45115" transform="translate(0 0)" opacity="0.9">
    <path id="Back" d="M14.1,11.471a.778.778,0,0,1,.006,1.1l-3.616,3.628H24.265a.774.774,0,0,1,0,1.549H10.485l3.622,3.628a.784.784,0,0,1-.006,1.1.771.771,0,0,1-1.09-.006L8.1,17.517h0a.87.87,0,0,1-.161-.244.739.739,0,0,1-.06-.3.776.776,0,0,1,.22-.542l4.909-4.945A.759.759,0,0,1,14.1,11.471Z" transform="translate(-7.882 -11.252)" fill="#ea4335"/>
  </g>
</svg>
