<svg xmlns="http://www.w3.org/2000/svg" width="116.069" height="31.25" viewBox="0 0 116.069 31.25">
  <g id="Group_54120" data-name="Group 54120" transform="translate(-498 -490.999)">
    <path id="Path_25162" data-name="Path 25162" d="M21.945,23.521H12.906a1.257,1.257,0,0,0-1.241,1.063L8.009,47.827a.754.754,0,0,0,.746.872H13.07a1.257,1.257,0,0,0,1.241-1.064l.986-6.269a1.255,1.255,0,0,1,1.24-1.064H19.4c5.954,0,9.39-2.89,10.288-8.615.4-2.505.017-4.473-1.153-5.852C27.248,24.322,24.97,23.521,21.945,23.521Zm1.043,8.489c-.494,3.252-2.972,3.252-5.368,3.252H16.255l.957-6.074a.754.754,0,0,1,.744-.637h.625c1.632,0,3.172,0,3.967.933A3.028,3.028,0,0,1,22.988,32.01Z" transform="translate(490 467.479)" fill="#28356a" fill-rule="evenodd"/>
    <path id="Path_25163" data-name="Path 25163" d="M36.042,26.779H31.714a.755.755,0,0,0-.744.637l-.192,1.214-.3-.44c-.937-1.364-3.027-1.82-5.112-1.82A9.964,9.964,0,0,0,15.7,35.1a8.21,8.21,0,0,0,1.612,6.668,6.763,6.763,0,0,0,5.452,2.208,8.271,8.271,0,0,0,5.991-2.485L28.562,42.7a.755.755,0,0,0,.743.875h3.9a1.257,1.257,0,0,0,1.241-1.064l2.339-14.856A.752.752,0,0,0,36.042,26.779Zm-6.034,8.448a4.827,4.827,0,0,1-4.883,4.144,3.647,3.647,0,0,1-2.906-1.17,3.7,3.7,0,0,1-.679-3.05,4.85,4.85,0,0,1,4.851-4.178,3.648,3.648,0,0,1,2.886,1.182A3.765,3.765,0,0,1,30.009,35.227Z" transform="translate(503.152 472.43)" fill="#28356a" fill-rule="evenodd"/>
    <path id="Path_25164" data-name="Path 25164" d="M44.148,26.656H39.8a1.259,1.259,0,0,0-1.04.553l-6,8.861-2.543-8.516a1.26,1.26,0,0,0-1.205-.9H24.738a.756.756,0,0,0-.715,1l4.791,14.1-4.5,6.377a.755.755,0,0,0,.615,1.193h4.344a1.253,1.253,0,0,0,1.032-.541L44.767,27.842a.755.755,0,0,0-.618-1.186" transform="translate(517.765 472.926)" fill="#28356a" fill-rule="evenodd"/>
    <path id="Path_25165" data-name="Path 25165" d="M45.5,23.521h-9.04a1.257,1.257,0,0,0-1.24,1.063L31.562,47.827a.753.753,0,0,0,.743.872h4.639a.879.879,0,0,0,.867-.745l1.038-6.589a1.256,1.256,0,0,1,1.24-1.064h2.86c5.955,0,9.39-2.89,10.289-8.615.406-2.505.016-4.473-1.154-5.852C50.8,24.322,48.522,23.521,45.5,23.521ZM46.54,32.01c-.493,3.252-2.971,3.252-5.368,3.252H39.809l.958-6.074a.751.751,0,0,1,.743-.637h.625c1.631,0,3.172,0,3.967.933A3.028,3.028,0,0,1,46.54,32.01Z" transform="translate(530.916 467.479)" fill="#298fc2" fill-rule="evenodd"/>
    <path id="Path_25166" data-name="Path 25166" d="M59.589,26.779H55.263a.75.75,0,0,0-.743.637l-.192,1.214-.3-.44c-.937-1.364-3.025-1.82-5.111-1.82A9.962,9.962,0,0,0,39.252,35.1a8.215,8.215,0,0,0,1.611,6.668,6.768,6.768,0,0,0,5.452,2.208,8.272,8.272,0,0,0,5.991-2.485L52.113,42.7a.755.755,0,0,0,.745.875h3.9A1.257,1.257,0,0,0,58,42.508l2.341-14.856A.756.756,0,0,0,59.589,26.779Zm-6.033,8.448a4.826,4.826,0,0,1-4.884,4.144,3.651,3.651,0,0,1-2.906-1.17,3.71,3.71,0,0,1-.679-3.05,4.852,4.852,0,0,1,4.851-4.178,3.648,3.648,0,0,1,2.886,1.182A3.749,3.749,0,0,1,53.556,35.227Z" transform="translate(544.066 472.43)" fill="#298fc2" fill-rule="evenodd"/>
    <path id="Path_25167" data-name="Path 25167" d="M50.693,24.16l-3.71,23.669a.753.753,0,0,0,.743.872h3.73A1.254,1.254,0,0,0,52.7,47.636l3.658-23.242a.754.754,0,0,0-.743-.873H51.436a.756.756,0,0,0-.743.639" transform="translate(557.705 467.479)" fill="#298fc2" fill-rule="evenodd"/>
  </g>
</svg>
