<svg xmlns="http://www.w3.org/2000/svg" xmlns:xlink="http://www.w3.org/1999/xlink" width="264.557" height="232.602" viewBox="0 0 264.557 232.602">
  <defs>
    <linearGradient id="linear-gradient" x1="0.5" x2="0.5" y2="1" gradientUnits="objectBoundingBox">
      <stop offset="0.005" stop-color="#edf6ff"/>
      <stop offset="1" stop-color="#bfe8f9"/>
    </linearGradient>
  </defs>
  <g id="Group_53093" data-name="Group 53093" transform="translate(-357.862 -526.219)">
    <g id="Group_53090" data-name="Group 53090" transform="translate(357.862 526.218)">
      <g id="Group_53089" data-name="Group 53089" transform="translate(0 0)">
        <g id="Group_53087" data-name="Group 53087">
          <path id="Path_19835" data-name="Path 19835" d="M364.025,624.149a21.041,21.041,0,0,0,26.569,2.616l-14.979,14.978a21.041,21.041,0,0,0,26.569,32.373l-7.861,7.861a21.041,21.041,0,0,0,26.569,32.373l-1.92,1.92a21.041,21.041,0,0,0,29.757,29.757l19.939-19.939a21.041,21.041,0,0,0,32.373,26.569l30.3-30.3a21.041,21.041,0,0,0,32.373,26.569l47.165-47.165A21.041,21.041,0,0,0,584.3,669.393l9.873-9.873a21.041,21.041,0,0,0-26.569-32.373l19.939-19.939a21.041,21.041,0,0,0-26.569-32.373l12.7-12.7a21.041,21.041,0,1,0-29.757-29.757l-28.284,28.284A21.041,21.041,0,0,0,483.263,534.1l-39.7,39.7a21.041,21.041,0,0,0-32.373-26.569l-47.165,47.164a21.041,21.041,0,0,0,0,29.757Z" transform="translate(-357.862 -526.218)" fill="#fff"/>
          <path id="Path_19836" data-name="Path 19836" d="M3612.3,2857.693l-1.456,1.455a1.458,1.458,0,0,0,2.062,2.061l1.455-1.455,1.456,1.455a1.457,1.457,0,1,0,2.06-2.061l-1.456-1.455,1.456-1.456a1.457,1.457,0,1,0-2.06-2.061l-1.456,1.456-1.455-1.456a1.458,1.458,0,1,0-2.062,2.061Z" transform="translate(-3353.75 -2670.076)" fill="#fff"/>
          <path id="Path_19837" data-name="Path 19837" d="M976.045,3255.183l-1.456,1.456a1.457,1.457,0,0,0,2.061,2.061l1.456-1.456,1.456,1.456a1.457,1.457,0,0,0,2.061-2.061l-1.456-1.456,1.456-1.455a1.457,1.457,0,0,0-2.061-2.062l-1.456,1.456-1.456-1.456a1.458,1.458,0,0,0-2.061,2.062Z" transform="translate(-925.528 -3036.199)" fill="#fff"/>
          <path id="Path_19838" data-name="Path 19838" d="M503.987,1619.844l-1.456,1.455a1.457,1.457,0,0,0,2.061,2.061l1.456-1.456,1.456,1.456a1.457,1.457,0,0,0,2.061-2.061l-1.456-1.455,1.456-1.456a1.457,1.457,0,1,0-2.061-2.06l-1.456,1.455-1.456-1.455a1.457,1.457,0,0,0-2.061,2.06Z" transform="translate(-490.722 -1529.909)" fill="#fff"/>
          <path id="Path_19839" data-name="Path 19839" d="M2724.575,671.673l-1.455,1.456a1.457,1.457,0,0,0,2.061,2.061l1.456-1.456,1.455,1.456a1.457,1.457,0,0,0,2.061-2.061l-1.456-1.456,1.456-1.456a1.457,1.457,0,1,0-2.061-2.061l-1.455,1.455-1.456-1.455a1.457,1.457,0,0,0-2.061,2.061Z" transform="translate(-2536.076 -656.563)" fill="#fff"/>
          <path id="Path_19840" data-name="Path 19840" d="M2359.073,3326.93a4.257,4.257,0,1,1-4.257,4.258A4.263,4.263,0,0,1,2359.073,3326.93Zm0,5.6a1.342,1.342,0,1,0-1.342-1.341A1.343,1.343,0,0,0,2359.073,3332.529Z" transform="translate(-2197.23 -3105.916)" fill="#fff"/>
          <path id="Path_19841" data-name="Path 19841" d="M3375.673,1608.163a4.257,4.257,0,1,1-4.256,4.257A4.262,4.262,0,0,1,3375.673,1608.163Zm0,5.6a1.342,1.342,0,1,0-1.341-1.343A1.345,1.345,0,0,0,3375.673,1613.762Z" transform="translate(-3133.607 -1522.782)" fill="#fff"/>
          <path id="Path_19842" data-name="Path 19842" d="M1117.62,742.474a4.256,4.256,0,1,1-4.257,4.256A4.261,4.261,0,0,1,1117.62,742.474Zm0,5.6a1.342,1.342,0,1,0-1.342-1.342A1.343,1.343,0,0,0,1117.62,748.073Z" transform="translate(-1053.745 -725.409)" fill="#fff"/>
          <path id="Path_19843" data-name="Path 19843" d="M489.234,2426.622a4.256,4.256,0,1,1-4.257,4.257A4.261,4.261,0,0,1,489.234,2426.622Zm0,5.6a1.342,1.342,0,1,0-1.342-1.342A1.343,1.343,0,0,0,489.234,2432.221Z" transform="translate(-474.946 -2276.655)" fill="#fff"/>
        </g>
        <g id="Group_53088" data-name="Group 53088">
          <path id="Path_19844" data-name="Path 19844" d="M364.025,624.149a21.041,21.041,0,0,0,26.569,2.616l-14.979,14.978a21.041,21.041,0,0,0,26.569,32.373l-7.861,7.861a21.041,21.041,0,0,0,26.569,32.373l-1.92,1.92a21.041,21.041,0,0,0,29.757,29.757l19.939-19.939a21.041,21.041,0,0,0,32.373,26.569l30.3-30.3a21.041,21.041,0,0,0,32.373,26.569l47.165-47.165A21.041,21.041,0,0,0,584.3,669.393l9.873-9.873a21.041,21.041,0,0,0-26.569-32.373l19.939-19.939a21.041,21.041,0,0,0-26.569-32.373l12.7-12.7a21.041,21.041,0,1,0-29.757-29.757l-28.284,28.284A21.041,21.041,0,0,0,483.263,534.1l-39.7,39.7a21.041,21.041,0,0,0-32.373-26.569l-47.165,47.164a21.041,21.041,0,0,0,0,29.757Z" transform="translate(-357.862 -526.218)" fill="url(#linear-gradient)"/>
          <path id="Path_19845" data-name="Path 19845" d="M3612.3,2857.693l-1.456,1.455a1.458,1.458,0,0,0,2.062,2.061l1.455-1.455,1.456,1.455a1.457,1.457,0,1,0,2.06-2.061l-1.456-1.455,1.456-1.456a1.457,1.457,0,1,0-2.06-2.061l-1.456,1.456-1.455-1.456a1.458,1.458,0,1,0-2.062,2.061Z" transform="translate(-3353.75 -2670.076)" fill="#32838d"/>
          <path id="Path_19846" data-name="Path 19846" d="M976.045,3255.183l-1.456,1.456a1.457,1.457,0,0,0,2.061,2.061l1.456-1.456,1.456,1.456a1.457,1.457,0,0,0,2.061-2.061l-1.456-1.456,1.456-1.455a1.457,1.457,0,0,0-2.061-2.062l-1.456,1.456-1.456-1.456a1.458,1.458,0,0,0-2.061,2.062Z" transform="translate(-925.528 -3036.199)" fill="#32838d"/>
          <path id="Path_19847" data-name="Path 19847" d="M503.987,1619.844l-1.456,1.455a1.457,1.457,0,0,0,2.061,2.061l1.456-1.456,1.456,1.456a1.457,1.457,0,0,0,2.061-2.061l-1.456-1.455,1.456-1.456a1.457,1.457,0,1,0-2.061-2.06l-1.456,1.455-1.456-1.455a1.457,1.457,0,0,0-2.061,2.06Z" transform="translate(-490.722 -1529.909)" fill="#32838d"/>
          <path id="Path_19848" data-name="Path 19848" d="M2724.575,671.673l-1.455,1.456a1.457,1.457,0,0,0,2.061,2.061l1.456-1.456,1.455,1.456a1.457,1.457,0,0,0,2.061-2.061l-1.456-1.456,1.456-1.456a1.457,1.457,0,1,0-2.061-2.061l-1.455,1.455-1.456-1.455a1.457,1.457,0,0,0-2.061,2.061Z" transform="translate(-2536.076 -656.563)" fill="#32838d"/>
          <path id="Path_19849" data-name="Path 19849" d="M2359.073,3326.93a4.257,4.257,0,1,1-4.257,4.258A4.263,4.263,0,0,1,2359.073,3326.93Zm0,5.6a1.342,1.342,0,1,0-1.342-1.341A1.343,1.343,0,0,0,2359.073,3332.529Z" transform="translate(-2197.23 -3105.916)" fill="#32838d"/>
          <path id="Path_19850" data-name="Path 19850" d="M3375.673,1608.163a4.257,4.257,0,1,1-4.256,4.257A4.262,4.262,0,0,1,3375.673,1608.163Zm0,5.6a1.342,1.342,0,1,0-1.341-1.343A1.345,1.345,0,0,0,3375.673,1613.762Z" transform="translate(-3133.607 -1522.782)" fill="#32838d"/>
          <path id="Path_19851" data-name="Path 19851" d="M1117.62,742.474a4.256,4.256,0,1,1-4.257,4.256A4.261,4.261,0,0,1,1117.62,742.474Zm0,5.6a1.342,1.342,0,1,0-1.342-1.342A1.343,1.343,0,0,0,1117.62,748.073Z" transform="translate(-1053.745 -725.409)" fill="#32838d"/>
          <path id="Path_19852" data-name="Path 19852" d="M489.234,2426.622a4.256,4.256,0,1,1-4.257,4.257A4.261,4.261,0,0,1,489.234,2426.622Zm0,5.6a1.342,1.342,0,1,0-1.342-1.342A1.343,1.343,0,0,0,489.234,2432.221Z" transform="translate(-474.946 -2276.655)" fill="#32838d"/>
        </g>
      </g>
    </g>
    <g id="Group_53092" data-name="Group 53092" transform="translate(378.551 593.435)">
      <path id="Path_19853" data-name="Path 19853" d="M995.068,2445.609H921.194a7.824,7.824,0,1,1,0-15.648h60.3q.483.739.992,1.461.58.823,1.192,1.622a56.636,56.636,0,0,0,5.56,6.986c.97,1.039,2,2.063,3.072,3.045Z" transform="translate(-890.221 -2346.946)" fill="#fff"/>
      <path id="Path_19854" data-name="Path 19854" d="M1330.46,2139.228h-25.506a7.824,7.824,0,0,1,0-15.649H1326.7c0,.038.005.075.009.112.037.452.081.9.13,1.348a51.308,51.308,0,0,0,3.039,12.728q.278.736.578,1.459Z" transform="translate(-1243.697 -2064.744)" fill="#b3b3b3"/>
      <path id="Path_19855" data-name="Path 19855" d="M947.452,1817.2c-.034.08-.067.159-.1.239q-.251.608-.487,1.221a51.358,51.358,0,0,0-3.1,12.729c-.054.485-.1.971-.144,1.46H889.024a7.824,7.824,0,1,1,0-15.649Z" transform="translate(-860.59 -1782.541)" fill="#fff"/>
      <path id="Path_19856" data-name="Path 19856" d="M1348.84,1510.82l-2.8,2.541c-1.167,1.059-2.286,2.161-3.327,3.276a56.515,56.515,0,0,0-5.554,6.978l0,0q-.522.685-1.025,1.39-.514.721-1,1.459h-30.172a7.824,7.824,0,0,1,0-15.648Z" transform="translate(-1243.697 -1500.339)" fill="#b3b3b3"/>
      <path id="Path_19857" data-name="Path 19857" d="M2011.624,1592.734a9.264,9.264,0,0,1-2.731,6.594l-47.271,47.271a13.26,13.26,0,0,1-18.754,0l-17.333-17.332a9.323,9.323,0,0,1,0-13.187c.107-.106.219-.213.333-.316a9.325,9.325,0,0,1,12.853.316l13.523,13.523,38.032-38.032h0l5.429-5.43a9.325,9.325,0,0,1,15.918,6.593Z" transform="translate(-1819.997 -1567.2)" fill="#ff6050"/>
      <path id="Path_19858" data-name="Path 19858" d="M1766.9,1418.021a14.9,14.9,0,0,0-9.068-11.24q-.307-.125-.616-.234a14.876,14.876,0,0,0-15.4,3.4l-.108.105-.8.805a53.181,53.181,0,0,0-63.723-6.793q-1.165.7-2.295,1.46-.435.292-.865.594-1.085.762-2.137,1.579-.2.157-.4.317-.631.5-1.249,1.024a53.6,53.6,0,0,0-4.6,4.37c-1.205,1.289-2.355,2.651-3.431,4.062q-.526.69-1.029,1.394-.3.421-.593.848-.5.723-.963,1.46-.19.3-.374.594-.123.2-.243.4c-.094.156-.188.312-.281.47q-.6,1.011-1.158,2.055c-.62,1.163-1.2,2.351-1.73,3.554q-.252.567-.489,1.14c-.043.1-.088.211-.131.32-.078.194-.158.392-.237.595-.044.113-.089.226-.133.342-.067.174-.132.349-.2.523q-.378,1.018-.716,2.055c-.529,1.62-.979,3.268-1.347,4.923a53.1,53.1,0,0,0-.93,5.588c-.006.055-.013.11-.019.163-.055.512-.1.991-.139,1.46a.017.017,0,0,0,0,.006c-.016.2-.031.392-.045.588-.021.288-.038.576-.054.865-.038.685-.062,1.372-.073,2.055-.005.289-.007.579-.007.868,0,.891.023,1.789.068,2.687q.037.731.094,1.459c.005.078.011.154.017.23.01.119.021.241.031.365.024.27.052.556.085.865.005.051.011.1.016.156q.1.951.239,1.9c.19,1.327.431,2.644.718,3.933.243,1.093.522,2.183.835,3.263q.51,1.759,1.14,3.478c.063.173.127.344.193.516.12.317.243.632.368.943.074.188.151.374.226.557q.188.454.384.9a53.33,53.33,0,0,0,2.853,5.61q.207.355.42.706c.152.251.308.5.466.753.308.49.627.978.955,1.461q.285.422.58.84.579.823,1.193,1.626c1.08,1.416,2.232,2.78,3.44,4.075a53.664,53.664,0,0,0,5.845,5.393l.212.166.053.041q1.367,1.072,2.795,2.047,1.109.76,2.253,1.46a52.933,52.933,0,0,0,15.308,6.335l.011,0h0a53.271,53.271,0,0,0,64.247-64l6.4-6.4a14.9,14.9,0,0,0,4.141-13.078Zm-2.224,7.6a13.365,13.365,0,0,1-2.949,4.444l-6.978,6.979a51.783,51.783,0,0,1-78.433,56.088q-1.894-1.233-3.671-2.626l-.258-.2q-1.766-1.4-3.4-2.95-1.176-1.112-2.282-2.3-1.752-1.876-3.315-3.923-.612-.8-1.192-1.622-.507-.723-.992-1.461-.474-.72-.922-1.459c-.01-.017-.021-.035-.031-.052a51.579,51.579,0,0,1-2.924-5.558q-.327-.725-.631-1.46v0q-.3-.723-.578-1.458a51.36,51.36,0,0,1-3.039-12.729q-.072-.671-.129-1.348c0-.037-.007-.074-.009-.112q-.058-.728-.1-1.459-.068-1.335-.07-2.687,0-1.471.083-2.923.036-.67.091-1.335c0-.042.007-.083.011-.125q.062-.733.145-1.46a51.3,51.3,0,0,1,3.1-12.729q.236-.614.487-1.221c.033-.08.066-.158.1-.238q.307-.736.639-1.46a51.387,51.387,0,0,1,2.817-5.321c.059-.1.117-.192.177-.288q.453-.738.933-1.459.489-.741,1-1.46.5-.7,1.026-1.39s0,0,0,0q1.559-2.04,3.31-3.915a52.24,52.24,0,0,1,5.686-5.245l.394-.309q1.781-1.386,3.682-2.616a51.781,51.781,0,0,1,64.462,6.667l1.818-1.818a13.417,13.417,0,0,1,18.984,0,13.647,13.647,0,0,1,.973,1.082,13.438,13.438,0,0,1,1.976,13.458Z" transform="translate(-1569.929 -1395.04)" fill="#ff6050"/>
      <path id="Path_19859" data-name="Path 19859" d="M1781.712,1432.567a13.347,13.347,0,0,0-1.976-3.362,13.847,13.847,0,0,0-.973-1.082,13.415,13.415,0,0,0-18.983,0l-1.818,1.817a51.782,51.782,0,0,0-64.463-6.667q-1.9,1.228-3.682,2.616l-.393.309a52.153,52.153,0,0,0-5.686,5.245q-1.75,1.872-3.31,3.914s0,0,0,0q-.523.686-1.026,1.39-.514.721-1,1.46-.479.721-.933,1.46c-.06.1-.118.192-.177.288a51.4,51.4,0,0,0-2.817,5.321q-.331.723-.639,1.46c-.034.08-.067.159-.1.238q-.251.607-.487,1.222a51.338,51.338,0,0,0-3.1,12.729c-.054.485-.1.971-.144,1.46,0,.041-.008.083-.011.125q-.053.665-.091,1.335-.081,1.451-.083,2.923,0,1.352.069,2.686.038.733.1,1.46c0,.037.005.075.009.112.037.452.081.9.129,1.348a51.4,51.4,0,0,0,3.039,12.729q.279.735.578,1.458v0q.3.736.631,1.46a51.588,51.588,0,0,0,2.925,5.558l.032.052q.448.738.921,1.459.483.739.992,1.46.579.824,1.191,1.623,1.561,2.043,3.315,3.922,1.105,1.184,2.282,2.3,1.636,1.548,3.4,2.95c.085.068.171.136.257.2q1.775,1.391,3.671,2.626a51.8,51.8,0,0,0,78.433-56.089l6.977-6.978a13.429,13.429,0,0,0,2.949-14.54ZM1694.56,1476.2l-.1-.1-1.958-1.957a9.323,9.323,0,0,1,0-13.187c.107-.106.219-.213.333-.316a9.325,9.325,0,0,1,12.854.316l2.055,2.055,11.469,11.468,38.032-38.032h0l5.429-5.43a9.324,9.324,0,0,1,13.187,13.187l-47.272,47.271a13.26,13.26,0,0,1-18.753,0Z" transform="translate(-1586.968 -1412.08)" fill="#5e99a0"/>
      <path id="Path_19860" data-name="Path 19860" d="M1969.236,1666.065a11.722,11.722,0,0,1-8.344-3.456l-17.333-17.333a7.86,7.86,0,0,1,0-11.122c.09-.09.185-.181.282-.268a7.864,7.864,0,0,1,10.84.268l14.555,14.556,44.494-44.495a7.864,7.864,0,0,1,11.122,11.122l-47.271,47.271A11.723,11.723,0,0,1,1969.236,1666.065Z" transform="translate(-1836.989 -1584.242)" fill="#fff"/>
      <path id="Path_19861" data-name="Path 19861" d="M1067.038,1423.429a16.248,16.248,0,0,0-3.589-5.412q-.516-.516-1.071-.98a16.34,16.34,0,0,0-21.861.8c-.362-.321-.728-.639-1.1-.949a54.635,54.635,0,0,0-64.993-4.04l-.324.213H930.846a9.284,9.284,0,0,0,0,18.569h25.843q-.994,1.74-1.86,3.554-.347.726-.671,1.46c-.089.2-.174.4-.26.6H898.024a9.286,9.286,0,0,0-7.512,14.742,9.4,9.4,0,0,0,.948,1.107,9.224,9.224,0,0,0,6.565,2.719h51.567c-.053.977-.079,1.955-.079,2.923,0,.21,0,.42,0,.631q.008.727.037,1.46c.007.2.016.4.026.595H930.846a9.283,9.283,0,0,0-9.283,9.284,9.29,9.29,0,0,0,1.771,5.457,9.3,9.3,0,0,0,7.513,3.828H953.8q.761,1.8,1.655,3.555.374.735.771,1.459c.11.2.219.4.331.6H900.563a9.292,9.292,0,0,0-8.228,13.592,9.073,9.073,0,0,0,.716,1.149,9.407,9.407,0,0,0,.948,1.107,9.309,9.309,0,0,0,.739.664,9.209,9.209,0,0,0,5.826,2.055h73.186a54.378,54.378,0,0,0,7.635,4.284q2.293,1.055,4.685,1.9,1.6.564,3.237,1.025h29.807a54.59,54.59,0,0,0,6.379-2.244q.77-.325,1.531-.676a54.769,54.769,0,0,0,30.6-61.487l5.828-5.828a16.348,16.348,0,0,0,3.589-17.7Zm-141.6,2.271a6.364,6.364,0,0,1,5.408-9.719h39.245a55.217,55.217,0,0,0-5.865,5.427c-1.012,1.084-1.988,2.218-2.913,3.388,0,0,0,0,0,0q-.863,1.088-1.666,2.214-.388.544-.764,1.1c-.134.2-.267.4-.4.595H930.846a6.349,6.349,0,0,1-5.408-3.01Zm-24.875,75.543a6.345,6.345,0,0,1-4.684-2.055,6.365,6.365,0,0,1-1.681-4.309,6.364,6.364,0,0,1,6.364-6.364h57.765q.553.85,1.139,1.682a55.3,55.3,0,0,0,4.759,5.855q.143.153.289.306l0,0q1.386,1.463,2.888,2.827.82.748,1.67,1.46.358.3.721.6Zm30.283-24.178a6.364,6.364,0,0,1,0-12.729H949.8c.011.1.021.206.033.312a54.51,54.51,0,0,0,.982,5.992q.1.447.206.892.421,1.751.958,3.478.228.734.478,1.46c.067.2.136.4.207.6Zm-38.231-27.188a6.364,6.364,0,0,1,5.409-9.718h54.725a54.5,54.5,0,0,0-1.934,6.661q-.047.211-.092.425c-.253,1.18-.467,2.381-.642,3.588q-.105.729-.191,1.459l-.031.269c-.013.109-.024.219-.036.326h-51.8a6.352,6.352,0,0,1-5.409-3.011Zm97.1,58.569-.012,0a51.5,51.5,0,0,1-13.729-6.31l-.039-.025q-1.874-1.222-3.632-2.6-.129-.1-.257-.2a51.986,51.986,0,0,1-5.459-5q-.115-.12-.227-.241-1.752-1.876-3.315-3.922-.612-.8-1.192-1.623-.508-.722-.992-1.46-.474-.721-.922-1.459l-.031-.052a51.489,51.489,0,0,1-2.925-5.557q-.327-.725-.631-1.46v0q-.3-.723-.578-1.458a51.363,51.363,0,0,1-3.039-12.729c-.048-.448-.092-.9-.129-1.348,0-.037-.006-.075-.009-.112q-.058-.728-.1-1.46-.069-1.335-.069-2.686,0-1.471.083-2.923.037-.67.091-1.335c0-.042.007-.083.011-.125q.062-.733.145-1.46a51.329,51.329,0,0,1,3.1-12.729q.237-.614.487-1.221c.033-.08.066-.159.1-.239q.308-.735.639-1.459a51.392,51.392,0,0,1,2.817-5.321c.058-.1.117-.193.177-.288q.454-.739.933-1.46.489-.74,1-1.46.5-.7,1.026-1.39s0,0,0,0q1.558-2.039,3.31-3.915a52.114,52.114,0,0,1,5.685-5.245l.393-.309q1.782-1.386,3.683-2.616a51.783,51.783,0,0,1,64.462,6.668l1.818-1.818a13.42,13.42,0,0,1,17.9-.972,13.653,13.653,0,0,1,1.082.973,13.342,13.342,0,0,1,2.949,4.443c.059.146.115.292.169.44a13.413,13.413,0,0,1-3.118,14.1l-6.978,6.979a51.811,51.811,0,0,1-64.692,62.4Z" transform="translate(-867.535 -1401.985)" fill="#ddd" style="mix-blend-mode: multiply;isolation: isolate"/>
      <path id="Path_19862" data-name="Path 19862" d="M2034.933,1612.181a9.323,9.323,0,0,0-13.186,0l-5.43,5.429h0l-38.032,38.032-1.022-1.022-1.033-1.033-11.469-11.469a9.325,9.325,0,0,0-12.854-.316c-.113.1-.226.21-.333.316a9.322,9.322,0,0,0-.1,13.089l.1.1,15.278,15.277,2.055,2.055a13.26,13.26,0,0,0,18.754,0l47.271-47.271a9.323,9.323,0,0,0,0-13.187Zm-5.995,15.052-1.934,1.935-1.948,1.947-39.459,39.46a10.327,10.327,0,0,1-14.625,0l-2.05-2.052-15.282-15.282a6.4,6.4,0,0,1,0-9.057c.074-.076.151-.148.23-.219a6.4,6.4,0,0,1,8.827.219l13.533,13.533,2.055,2.055,37.627-37.627,2.47-2.47,5.43-5.43a6.4,6.4,0,1,1,9.057,9.058Z" transform="translate(-1843.982 -1591.185)" fill="#ddd" style="mix-blend-mode: multiply;isolation: isolate"/>
      <path id="Path_19863" data-name="Path 19863" d="M979.565,2428.007q-1.894-1.233-3.671-2.626l-.257-.2q-1.766-1.4-3.4-2.95-1.176-1.111-2.282-2.3-1.752-1.877-3.315-3.923-.612-.8-1.192-1.622-.508-.723-.992-1.461-.474-.72-.922-1.458H904.154a9.283,9.283,0,0,0-6.759,15.648c.063.068.128.134.194.2a9.255,9.255,0,0,0,5.961,2.7c.2.013.4.02.6.02h77.621Zm-14.121-11.152a58.115,58.115,0,0,0,5.684,7.139q1.511,1.617,3.153,3.123H904.154a6.364,6.364,0,1,1,0-12.728h59.715l.069.113Q964.662,2415.7,965.444,2416.855Z" transform="translate(-873.181 -2329.915)" fill="#333"/>
      <path id="Path_19864" data-name="Path 19864" d="M1313.42,2122.189s0,0,0,0q-.3-.724-.578-1.458A51.424,51.424,0,0,1,1309.8,2108c-.048-.448-.092-.9-.129-1.348,0-.037-.006-.075-.009-.113q-.058-.727-.1-1.459h-21.656a9.284,9.284,0,1,0,0,18.569h26.138Q1313.724,2122.924,1313.42,2122.189Zm-2.97-7.227a57.73,57.73,0,0,0,1.6,5.767h-24.139a6.364,6.364,0,0,1,0-12.729h21.433A57.959,57.959,0,0,0,1310.45,2114.962Z" transform="translate(-1226.657 -2047.704)" fill="#333"/>
      <path id="Path_19865" data-name="Path 19865" d="M871.984,1798.7a9.284,9.284,0,0,0-6.565,15.849,9.376,9.376,0,0,0,1.107.947,9.212,9.212,0,0,0,5.458,1.772h54.49q.037-.67.091-1.335c0-.042.007-.084.011-.125q.062-.733.145-1.459a51.31,51.31,0,0,1,3.1-12.729q.237-.614.487-1.222c.033-.079.066-.158.1-.238q.308-.736.639-1.46Zm56.385,4.975q-.585,1.957-1.027,3.949-.346,1.553-.6,3.136c-.2,1.19-.354,2.389-.475,3.588H871.984a6.365,6.365,0,0,1,0-12.729h57.039Q928.677,1802.64,928.369,1803.675Z" transform="translate(-843.55 -1765.501)" fill="#333"/>
      <path id="Path_19866" data-name="Path 19866" d="M1287.913,1492.32a9.285,9.285,0,0,0-6.565,15.849,9.356,9.356,0,0,0,1.108.947,9.205,9.205,0,0,0,5.457,1.772h29.239q.453-.738.933-1.46.489-.74,1-1.46.5-.7,1.026-1.389s0,0,0,0q1.558-2.039,3.309-3.915a52.252,52.252,0,0,1,5.686-5.245l.393-.309q1.781-1.385,3.682-2.616l.361-.328,2.031-1.842Zm0,15.648a6.364,6.364,0,0,1,0-12.729h40.1q-1.1,1-2.153,2.055-.642.642-1.26,1.3a58.117,58.117,0,0,0-5.675,7.127q-.745,1.1-1.44,2.242Z" transform="translate(-1226.657 -1483.299)" fill="#333"/>
      <path id="Path_19867" data-name="Path 19867" d="M1750.336,1397.389a16.219,16.219,0,0,0-2.6-4.337q-.466-.557-.984-1.075a16.338,16.338,0,0,0-22.931-.179,54.768,54.768,0,0,0-15.185-9.565,54.63,54.63,0,0,0-51.229,4.788q-1.067.7-2.1,1.46c-.267.2-.534.394-.8.595q-.28.212-.557.427c-.139.108-.277.216-.415.325l-.139.112q-1.239.99-2.425,2.055c-1.2,1.075-2.347,2.2-3.44,3.373a55.3,55.3,0,0,0-4.582,5.605q-.6.836-1.162,1.7-.477.725-.928,1.459l-.143.234c-.072.12-.145.241-.217.361q-.257.43-.5.865-.579,1.013-1.116,2.055-.9,1.748-1.675,3.555c-.083.193-.165.386-.245.58-.116.283-.236.577-.354.879-.054.136-.107.273-.16.412-.024.061-.047.121-.069.183-.11.286-.217.575-.322.865q-.368,1.02-.7,2.055c-.481,1.519-.9,3.059-1.239,4.606a54.71,54.71,0,0,0-.955,5.741c-.013.11-.025.219-.036.326-.05.468-.092.913-.127,1.348,0,.037-.007.074-.009.112-.015.2-.031.4-.043.6-.021.288-.038.576-.052.865-.038.685-.061,1.371-.072,2.055q-.008.435-.007.868c0,.89.022,1.788.067,2.686q.035.732.09,1.46c.008.116.017.233.027.349.006.08.013.163.021.246.024.271.051.557.083.865.011.1.021.206.033.312.063.582.134,1.164.217,1.743.2,1.434.457,2.858.766,4.25a54.481,54.481,0,0,0,1.849,6.424q.184.52.379,1.035c.054.141.108.284.164.425.077.2.156.4.235.595.07.175.141.35.212.521l.144.344q.436,1.035.919,2.055.853,1.81,1.838,3.555.416.738.855,1.459v0c.12.2.241.4.366.593q.27.433.552.865.553.851,1.139,1.682c.088.125.176.25.265.373a55.229,55.229,0,0,0,4.494,5.482q1.133,1.212,2.343,2.361l0,0q1.556,1.476,3.223,2.827c.145.117.29.234.436.349l.215.17.056.043q.584.457,1.179.9,1.018.755,2.067,1.46a54.4,54.4,0,0,0,12.32,6.179c.154.054.308.107.462.159a54.956,54.956,0,0,0,35.35,0q1.824-.623,3.61-1.378a54.768,54.768,0,0,0,32.13-62.163l5.829-5.828a16.35,16.35,0,0,0,3.589-17.7Zm-91.065,78.7q-1.893-1.233-3.671-2.626l-.257-.2q-1.766-1.4-3.4-2.95-1.177-1.111-2.282-2.3-1.752-1.876-3.315-3.922-.612-.8-1.191-1.623-.508-.722-.992-1.46-.474-.721-.922-1.459l-.032-.052a51.683,51.683,0,0,1-2.925-5.558q-.327-.725-.631-1.46h0q-.3-.724-.578-1.459a51.3,51.3,0,0,1-3.039-12.729q-.073-.671-.13-1.348c0-.037-.006-.075-.009-.112q-.058-.728-.1-1.46-.068-1.335-.069-2.686,0-1.472.083-2.923c.024-.447.055-.892.09-1.335,0-.042.007-.084.011-.125q.062-.733.145-1.46a51.216,51.216,0,0,1,3.1-12.729q.237-.614.487-1.222c.033-.08.066-.159.1-.238q.307-.736.639-1.459a51.417,51.417,0,0,1,2.817-5.322c.058-.1.117-.192.177-.288q.453-.739.933-1.46c.325-.493.661-.979,1-1.459s.677-.933,1.026-1.39l0,0q1.558-2.04,3.31-3.915a52.085,52.085,0,0,1,5.686-5.246l.393-.309q1.782-1.386,3.683-2.616a51.783,51.783,0,0,1,64.462,6.667l1.817-1.817a13.416,13.416,0,0,1,18.983,0,13.579,13.579,0,0,1,.973,1.082,13.416,13.416,0,0,1-.973,17.9l-6.977,6.978a51.784,51.784,0,0,1-78.433,56.089Z" transform="translate(-1552.888 -1378)" fill="#333"/>
      <path id="Path_19868" data-name="Path 19868" d="M2009.841,1587.248a9.4,9.4,0,0,0-.948-1.108,9.325,9.325,0,0,0-13.187,0l-5.429,5.43h0l-38.032,38.032-11.469-11.469-2.055-2.055a9.325,9.325,0,0,0-12.853-.316c-.114.1-.226.21-.333.316a9.321,9.321,0,0,0,0,13.187l1.958,1.957.1.1,15.279,15.277a13.26,13.26,0,0,0,18.754,0l47.271-47.271a9.327,9.327,0,0,0,.948-12.079Zm-64.9,57.291-15.282-15.283-2.055-2.055a6.4,6.4,0,0,1,0-9.057c.075-.075.152-.148.23-.219a6.406,6.406,0,0,1,8.828.219l2.055,2.055,13.532,13.533,37.627-37.627,2.47-2.47,5.43-5.43a6.406,6.406,0,0,1,9.058,0,6.483,6.483,0,0,1,.91,1.145,6.409,6.409,0,0,1-.91,7.913l-3.931,3.93-1.934,1.935-1.948,1.947-39.459,39.46a10.341,10.341,0,0,1-14.62,0Z" transform="translate(-1819.997 -1567.2)" fill="#333"/>
      <g id="Group_53091" data-name="Group 53091" transform="translate(0 97.202)">
        <path id="Path_19869" data-name="Path 19869" d="M976.86,2728.539A1.461,1.461,0,0,1,975.4,2730H782.08a1.46,1.46,0,1,1,0-2.92H975.4A1.46,1.46,0,0,1,976.86,2728.539Z" transform="translate(-767.947 -2717.822)" fill="#333"/>
        <path id="Path_19870" data-name="Path 19870" d="M628.138,2730h-6.649a1.46,1.46,0,0,1,0-2.92h6.649a1.46,1.46,0,1,1,0,2.92Z" transform="translate(-620.029 -2717.819)" fill="#333"/>
        <path id="Path_19871" data-name="Path 19871" d="M907.184,2612.68h-6.649a1.46,1.46,0,0,1,0-2.92h6.649a1.46,1.46,0,1,1,0,2.92Z" transform="translate(-877.054 -2609.76)" fill="#333"/>
        <path id="Path_19872" data-name="Path 19872" d="M746.6,2612.68H739.95a1.46,1.46,0,0,1,0-2.92H746.6a1.46,1.46,0,0,1,0,2.92Z" transform="translate(-729.142 -2609.76)" fill="#333"/>
        <path id="Path_19873" data-name="Path 19873" d="M2878.536,2639.333h-6.649a1.46,1.46,0,1,1,0-2.92h6.649a1.46,1.46,0,0,1,0,2.92Z" transform="translate(-2692.84 -2634.31)" fill="#333"/>
        <path id="Path_19874" data-name="Path 19874" d="M3039.122,2639.333h-6.65a1.46,1.46,0,0,1,0-2.92h6.65a1.46,1.46,0,0,1,0,2.92Z" transform="translate(-2840.753 -2634.31)" fill="#333"/>
        <path id="Path_19875" data-name="Path 19875" d="M3314.827,2730h-6.649a1.46,1.46,0,1,1,0-2.92h6.649a1.46,1.46,0,0,1,0,2.92Z" transform="translate(-3094.702 -2717.819)" fill="#333"/>
      </g>
    </g>
  </g>
</svg>
