<svg xmlns="http://www.w3.org/2000/svg" width="28.8" height="28.8" viewBox="0 0 28.8 28.8">
  <g id="ic_users" opacity="0.67">
    <path id="Path_393" data-name="Path 393" d="M0,0H28.8V28.8H0Z" fill="none"/>
    <g id="Group_52855" data-name="Group 52855" transform="translate(6027.965 23647.039)">
      <line id="Line_366" data-name="Line 366" x2="10.34" transform="translate(-6018.36 -23622.26)" fill="none" stroke="#5e99a0" stroke-linecap="round" stroke-linejoin="round" stroke-width="1.6"/>
      <path id="Path_78771" data-name="Path 78771" d="M12.591,23A8.226,8.226,0,0,1,11.2,27.638" transform="translate(-6028.088 -23650.313)" fill="none" stroke="#5e99a0" stroke-linecap="round" stroke-linejoin="round" stroke-width="1.6"/>
      <path id="Path_78772" data-name="Path 78772" d="M20.391,27.638A8.226,8.226,0,0,1,19,23" transform="translate(-6029.859 -23650.313)" fill="none" stroke="#5e99a0" stroke-linecap="round" stroke-linejoin="round" stroke-width="1.6"/>
      <path id="Path_78773" data-name="Path 78773" d="M10.73,14.822h3.865v-8.5H3V5.546A1.551,1.551,0,0,1,4.546,4H21.552A1.551,1.551,0,0,1,23.1,5.546V17.141a1.551,1.551,0,0,1-1.546,1.546H4.546A1.551,1.551,0,0,1,3,17.141V10.957" transform="translate(-6026.227 -23646)" fill="none" stroke="#5e99a0" stroke-linecap="round" stroke-linejoin="round" stroke-width="1.6"/>
      <circle id="Ellipse_119" data-name="Ellipse 119" cx="1.41" cy="1.41" r="1.41" transform="translate(-6009.9 -23632.6)" fill="none" stroke="#5e99a0" stroke-linecap="round" stroke-linejoin="round" stroke-width="1.6"/>
      <circle id="Ellipse_120" data-name="Ellipse 120" cx="1.41" cy="1.41" r="1.41" transform="translate(-6018.36 -23632.6)" fill="none" stroke="#5e99a0" stroke-linecap="round" stroke-linejoin="round" stroke-width="1.6"/>
      <path id="Path_78774" data-name="Path 78774" d="M18,16.184V10h3.865l2.319,3.092v3.092H22.638" transform="translate(-6029.632 -23647.363)" fill="none" stroke="#5e99a0" stroke-linecap="round" stroke-linejoin="round" stroke-width="1.6"/>
      <line id="Line_367" data-name="Line 367" x2="6.58" transform="translate(-6022.12 -23637.301)" fill="none" stroke="#5e99a0" stroke-linecap="round" stroke-linejoin="round" stroke-width="1.6"/>
      <line id="Line_368" data-name="Line 368" x2="6.58" transform="translate(-6024 -23635.42)" fill="none" stroke="#5e99a0" stroke-linecap="round" stroke-linejoin="round" stroke-width="1.6"/>
    </g>
  </g>
</svg>
