<svg xmlns="http://www.w3.org/2000/svg" width="9.292" height="11.357" viewBox="0 0 9.292 11.357">
  <g id="location-svgrepo-com" transform="translate(0 0)">
    <path id="Path_16071" data-name="Path 16071" d="M10.065,6A2.065,2.065,0,1,0,12.13,8.065,2.065,2.065,0,0,0,10.065,6Zm0,1.032A1.032,1.032,0,1,0,11.1,8.065,1.032,1.032,0,0,0,10.065,7.032Z" transform="translate(-5.419 -2.792)" fill="#5e99a0" fill-rule="evenodd"/>
    <path id="Path_16072" data-name="Path 16072" d="M7.176,12.148l.141.094.055.035a.517.517,0,0,0,.548,0l.055-.036.141-.094c.12-.082.288-.2.49-.357a12.949,12.949,0,0,0,1.479-1.327A7.108,7.108,0,0,0,12.292,5.74a4.789,4.789,0,0,0-1.357-3.347,4.581,4.581,0,0,0-6.579,0A4.789,4.789,0,0,0,3,5.74a7.108,7.108,0,0,0,2.207,4.724,12.948,12.948,0,0,0,1.479,1.327C6.888,11.946,7.057,12.066,7.176,12.148Zm.47-10.116A3.568,3.568,0,0,0,5.095,3.114,3.757,3.757,0,0,0,4.032,5.74,6.1,6.1,0,0,0,5.955,9.753a11.911,11.911,0,0,0,1.36,1.22c.127.1.239.179.331.245.092-.065.2-.147.331-.245a11.912,11.912,0,0,0,1.36-1.22A6.1,6.1,0,0,0,11.259,5.74,3.756,3.756,0,0,0,10.2,3.114,3.567,3.567,0,0,0,7.646,2.032Z" transform="translate(-3 -1)" fill="#5e99a0" fill-rule="evenodd"/>
  </g>
</svg>
