<svg xmlns="http://www.w3.org/2000/svg" width="19.403" height="25.87" viewBox="0 0 19.403 25.87">
  <path id="location-pin-svgrepo-com" d="M13.794-.011A9.965,9.965,0,0,0,4,9.855c0,5.6,5.206,11.332,8.707,15.359a1.977,1.977,0,0,0,1.277.644h.061a1.963,1.963,0,0,0,1.273-.644C18.6,21.437,23.4,15.208,23.4,9.855S19.9-.011,13.794-.011Zm.324,24.14a.98.98,0,0,1-.106.087.985.985,0,0,1-.108-.087l-.423-.487c-3.32-3.808-7.865-9.023-7.865-13.788A8.324,8.324,0,0,1,13.793,1.6c5.521,0,7.992,4.143,7.992,8.25,0,3.617-2.581,8.421-7.668,14.275ZM13.73,4.884A4.851,4.851,0,1,0,18.58,9.735,4.851,4.851,0,0,0,13.73,4.884Zm0,8.085A3.3,3.3,0,0,1,10.459,9.7a3.234,3.234,0,1,1,3.271,3.269Z" transform="translate(-4 0.011)" fill="#5e99a0" opacity="0.6"/>
</svg>
