<svg xmlns="http://www.w3.org/2000/svg" width="33.2" height="33.8" viewBox="0 0 33.2 33.8">
  <g id="Notifications" transform="translate(-0.4)">
    <g id="ic-bell" transform="translate(0.4 5)">
      <path id="Path_401" data-name="Path 401" d="M0,0H28.8V28.8H0Z" fill="none"/>
      <g id="notification-svgrepo-com_1_" data-name="notification-svgrepo-com (1)" transform="translate(1.839 1.69)">
        <path id="Path_500" data-name="Path 500" d="M12.587,2.91A6.428,6.428,0,0,0,6.164,9.333v3.094a5.115,5.115,0,0,1-.61,2.205L4.323,16.677a2.055,2.055,0,0,0,1.156,3.137,22.4,22.4,0,0,0,14.206,0,2.143,2.143,0,0,0,1.156-3.137L19.61,14.632a5.257,5.257,0,0,1-.6-2.205V9.333A6.442,6.442,0,0,0,12.587,2.91Z" transform="translate(0 0.068)" fill="none" stroke="#7e84a3" stroke-linecap="round" stroke-width="1.5"/>
        <path id="Path_501" data-name="Path 501" d="M14.131,3.289A6.481,6.481,0,0,0,13.1,3.075a7.23,7.23,0,0,0-2.933.214,2.128,2.128,0,0,1,3.961,0Z" transform="translate(0.437 0)" fill="none" stroke="#7e84a3" stroke-linecap="round" stroke-linejoin="round" stroke-width="1.5"/>
        <path id="Path_502" data-name="Path 502" d="M15.443,19.06a3.212,3.212,0,0,1-6.423,0" transform="translate(0.356 1.207)" fill="none" stroke="#7e84a3" stroke-width="1.5"/>
      </g>
    </g>
    <g id="counter_Circle" data-name="counter Circle" transform="translate(14.4)">
      <rect id="BG" width="19.2" height="19.2" rx="9.6" transform="translate(0 1.2)" fill="#f0142f"/>
      <text id="Value" transform="translate(4.8 15)" fill="#fff" font-size="14" font-family="Poppins-Regular, Poppins" letter-spacing="0.006em"><tspan x="0" y="0">2</tspan></text>
    </g>
  </g>
</svg>
