<svg xmlns="http://www.w3.org/2000/svg" width="105.081" height="43.726" viewBox="0 0 105.081 43.726">
  <path id="Path_25168" data-name="Path 25168" d="M7.385,17.134c0-1.138.934-1.576,2.481-1.576A16.281,16.281,0,0,1,17.1,17.426v-6.86A19.249,19.249,0,0,0,9.866,9.224C3.941,9.224,0,12.318,0,17.484c0,8.056,11.092,6.772,11.092,10.245,0,1.343-1.168,1.781-2.8,1.781A18.169,18.169,0,0,1,.321,27.175v6.947A20.234,20.234,0,0,0,8.29,35.786c6.071,0,10.245-3.006,10.245-8.231C18.506,18.856,7.385,20.4,7.385,17.134ZM27.117,3.386,19.995,4.9l-.029,23.381a7.334,7.334,0,0,0,7.56,7.5,11.273,11.273,0,0,0,5.108-.963V28.9c-.934.379-5.546,1.722-5.546-2.6V15.937h5.546V9.72H27.088ZM41.712,11.88l-.467-2.16h-6.3V35.261h7.3V17.951c1.722-2.248,4.641-1.839,5.546-1.518V9.72C46.849,9.37,43.434,8.728,41.712,11.88Zm7.852-2.16H56.89V35.261H49.563Zm0-2.218L56.89,5.925V0L49.563,1.547ZM72.127,9.224A8.245,8.245,0,0,0,66.406,11.5l-.379-1.81H59.6V43.726l7.3-1.547.029-8.261A8.219,8.219,0,0,0,72.1,35.757c5.225,0,9.983-4.2,9.983-13.456C82.051,13.836,77.235,9.224,72.127,9.224ZM70.375,29.335a4.363,4.363,0,0,1-3.444-1.372L66.9,17.134a4.345,4.345,0,0,1,3.474-1.43c2.656,0,4.5,2.977,4.5,6.8C74.87,26.416,73.061,29.335,70.375,29.335Zm34.706-6.743c0-7.472-3.62-13.369-10.537-13.369-6.947,0-11.15,5.9-11.15,13.31,0,8.786,4.962,13.223,12.084,13.223a16.276,16.276,0,0,0,8.085-1.9V28.022a15.5,15.5,0,0,1-7.151,1.606c-2.831,0-5.342-.993-5.663-4.437h14.274C105.023,24.811,105.081,23.293,105.081,22.593ZM90.662,19.82c0-3.3,2.014-4.67,3.853-4.67,1.78,0,3.678,1.372,3.678,4.67Z" fill="#6772e5"/>
</svg>
