<svg xmlns="http://www.w3.org/2000/svg" width="23.6" height="23.6" viewBox="0 0 23.6 23.6">
  <path id="Path_387" data-name="Path 387" d="M11.79,4.58a2.068,2.068,0,0,1,4.02,0A2.069,2.069,0,0,0,18.9,5.86,2.07,2.07,0,0,1,21.742,8.7,2.069,2.069,0,0,0,23.02,11.79a2.068,2.068,0,0,1,0,4.02A2.069,2.069,0,0,0,21.74,18.9,2.07,2.07,0,0,1,18.9,21.742,2.069,2.069,0,0,0,15.81,23.02a2.068,2.068,0,0,1-4.02,0A2.069,2.069,0,0,0,8.7,21.74,2.07,2.07,0,0,1,5.858,18.9,2.069,2.069,0,0,0,4.58,15.81a2.068,2.068,0,0,1,0-4.02A2.069,2.069,0,0,0,5.86,8.7,2.07,2.07,0,0,1,8.7,5.858,2.068,2.068,0,0,0,11.79,4.58Z" transform="translate(-2 -2)" fill="none" stroke="#5e99a0" stroke-linecap="round" stroke-linejoin="round" stroke-width="2"/>
</svg>
