<svg xmlns="http://www.w3.org/2000/svg" width="15.15" height="15.5" viewBox="0 0 15.15 15.5">
  <path id="upload-svgrepo-com" d="M5.625,15a.75.75,0,0,0-1.5,0Zm-.75,1h0Zm14.4-1a.75.75,0,0,0-1.5,0ZM12.291,5.461a.75.75,0,1,0-1.183-.923ZM7.209,9.539a.75.75,0,0,0,1.183.923Zm5.083-5a.75.75,0,1,0-1.183.923Zm2.717,5.923a.75.75,0,0,0,1.183-.923ZM12.45,5a.75.75,0,0,0-1.5,0Zm-1.5,11a.75.75,0,0,0,1.5,0ZM4.125,15v1h1.5V15Zm0,1A3.713,3.713,0,0,0,7.8,19.75v-1.5A2.213,2.213,0,0,1,5.625,16ZM7.8,19.75h7.8v-1.5H7.8Zm7.8,0A3.713,3.713,0,0,0,19.275,16h-1.5A2.213,2.213,0,0,1,15.6,18.25ZM19.275,16V15h-1.5v1ZM11.109,4.539l-3.9,5,1.183.923,3.9-5Zm0,.923,3.9,5,1.183-.923-3.9-5ZM10.95,5V16h1.5V5Z" transform="translate(-4.125 -4.25)" fill="#5e99a0" opacity="0.6"/>
</svg>
