<svg xmlns="http://www.w3.org/2000/svg" width="55.392" height="52.426" viewBox="0 0 55.392 52.426">
  <path id="upload-svgrepo-com" d="M14.865,21.8V18.831a14.831,14.831,0,1,1,29.662,0V21.8A11.865,11.865,0,0,1,56.392,33.662,12.032,12.032,0,0,1,50.46,44.044M14.865,21.8A11.865,11.865,0,0,0,3,33.662,12.032,12.032,0,0,0,8.932,44.044M14.865,21.8a11.863,11.863,0,0,1,3.678.581M29.7,27.73v26.7m0-26.7,8.9,8.9m-8.9-8.9-8.9,8.9" transform="translate(-2 -3)" fill="none" stroke="#000" stroke-linecap="round" stroke-linejoin="round" stroke-width="2" opacity="0.5"/>
</svg>
