<svg xmlns="http://www.w3.org/2000/svg" width="28.8" height="28.8" viewBox="0 0 28.8 28.8">
  <path id="usd-circle" d="M14.091,11.473h5.236a1.309,1.309,0,1,0,0-2.618H16.709V7.545a1.309,1.309,0,0,0-2.618,0V8.855a3.927,3.927,0,0,0,0,7.855h2.618a1.309,1.309,0,0,1,0,2.618H11.473a1.309,1.309,0,0,0,0,2.618h2.618v1.309a1.309,1.309,0,0,0,2.618,0V21.945a3.927,3.927,0,1,0,0-7.855H14.091a1.309,1.309,0,0,1,0-2.618ZM15.4,1A14.4,14.4,0,1,0,29.8,15.4,14.4,14.4,0,0,0,15.4,1Zm0,26.182A11.782,11.782,0,1,1,27.182,15.4,11.782,11.782,0,0,1,15.4,27.182Z" transform="translate(-1 -1)" fill="#5e99a0"/>
</svg>
